<svg enable-background="new 312.5 2402.5 400 512" height="512" viewBox="312.5 2402.5 400 512" width="400" xmlns="http://www.w3.org/2000/svg"><g fill="#fff"><path d="m638.674 2607.119c-24.181-13.232-48.58-26.031-72.978-38.829-18.952-9.979-38.559-9.979-57.729-.435-11.546 5.64-20.26 14.316-26.359 26.031 61.215 32.321 121.775 64.643 182.991 96.965 1.089-2.604 2.396-4.772 3.049-7.159 11.11-29.717-.653-61.171-28.974-76.573z"/><path d="m709.692 2415.574c-4.792-6.725-11.546-10.628-19.606-12.364-8.714-1.952-13.725 0-18.299 7.376-27.884 44.253-55.551 88.288-83.435 132.539-.872 1.52-1.743 2.82-2.614 4.34.436.65.871 1.084 1.307 1.302 18.952 9.978 37.904 20.173 57.293 30.369.654-1.086 1.09-1.52 1.308-2.17 21.784-49.024 43.568-98.049 65.571-147.074 2.179-5.207 1.526-9.762-1.525-14.318z"/><path d="m645.864 2709.507c3.703-9.546-.872-20.175-10.457-23.861-9.368-3.688-20.26.867-23.963 10.412-1.96 4.989-42.262 108.68-9.585 181.564-15.467-.216-40.084-3.687-74.504-16.703-6.317-19.956-10.892-50.76 3.05-87.204 0 0-33.33 37.963-38.995 71.803-7.188-3.471-14.596-7.158-22.656-11.496-7.843-4.339-15.249-8.461-22.002-12.365 25.27-23.21 38.559-72.019 38.559-72.019-22.656 31.671-51.194 45.12-71.236 50.76-30.062-21.475-46.401-39.913-55.115-52.494 79.078-13.016 143.779-103.907 146.828-108.246 5.883-8.243 3.704-19.74-4.574-25.597s-19.824-3.688-25.706 4.555c-.653 1.086-72.325 101.087-142.471 93.712-5.446-.651-11.11 1.302-15.031 5.206s-5.882 9.327-5.446 14.968c.653 6.508 10.238 65.511 138.985 134.275 72.542 38.613 121.558 47.724 151.403 47.724 23.309 0 35.073-5.423 37.687-6.724 5.011-2.604 8.496-7.159 9.585-12.8 1.089-5.424-.436-11.062-3.921-15.401-45.312-54.233-.653-168.768-.435-170.069z"/></g></svg>