<svg enable-background="new 0 0 116 116" height="116" viewBox="0 0 116 116" width="116" xmlns="http://www.w3.org/2000/svg"><path d="m75.015 90.987v-48.937c0-2.175 1.812-3.987 3.987-3.987 2.176 0 3.988 1.812 3.988 3.987v48.938c0 2.175-1.812 3.987-3.988 3.987-2.175 0-3.987-1.813-3.987-3.988zm30.812-74.312c2.538 0 4.351 1.812 3.987 3.987 0 2.175-2.175 3.987-4.35 3.987h-4.713v73.588c0 9.787-7.975 17.763-17.762 17.763h-50.024c-9.788 0-17.763-7.976-17.763-17.763v-73.588h-4.712c-2.538 0-4.35-1.812-4.35-3.987s2.175-3.987 4.35-3.987h22.837v-3.263c0-7.25 6.163-13.412 13.413-13.412h22.837c7.25 0 13.413 6.162 13.413 13.412v3.263zm-63.8-2.901v3.263h33.35v-3.263c0-2.899-2.537-5.438-5.438-5.438h-22.836c-2.901.001-5.438 2.539-5.076 5.438zm-18.125 10.875v73.588c0 5.438 3.987 9.787 9.425 9.787h50.025c5.075 0 9.062-4.35 9.425-9.425v-73.95zm30.451 69.601v-55.825c0-2.175 1.812-3.987 3.987-3.987s3.987 1.812 3.987 3.987v55.825c0 2.537-1.812 4.35-3.987 4.35s-3.987-1.813-3.987-4.35zm-20.663-3.263v-48.937c0-2.175 1.812-3.987 3.987-3.987s3.988 1.812 3.988 3.987v48.938c0 2.175-1.812 3.987-3.988 3.987-2.537 0-3.987-1.813-3.987-3.988z"/></svg>