<svg enable-background="new 0 0 116 116" height="116" viewBox="0 0 116 116" width="116" xmlns="http://www.w3.org/2000/svg"><path d="m107.697 47.468-.022-.026c4.684 5.189 7.537 12.065 7.537 19.607 0 5.376-1.449 10.413-3.904 14.604l-.074.139c-4.042 6.984-10.918 12.123-19.244 13.878l-.059.207c-3.842 11.685-14.842 20.122-27.813 20.122-.009 0-.019 0-.026 0h.008c-.056 0-.112 0-.167 0-8.594 0-16.312-3.747-21.636-9.725l.194-.036c-2.038.449-4.156.687-6.329.687-10.786 0-20.209-5.839-25.354-14.667l.074.133c-2.558-4.312-4.025-9.345-4.025-14.721 0-3.273.544-6.419 1.486-9.149l.021.024c-4.707-5.188-7.576-12.074-7.576-19.632 0-5.413 1.473-10.482 3.964-14.693l.074-.141c4.041-6.986 10.92-12.127 19.249-13.877l.061-.207c3.894-11.62 14.87-19.994 27.802-19.994 8.644 0 16.413 3.741 21.801 9.718l-.194.036c2.035-.449 4.15-.686 6.32-.686 10.781 0 20.199 5.839 25.339 14.666l-.073-.133c2.566 4.319 4.04 9.364 4.04 14.753-.001 3.259-.54 6.393-1.474 9.113zm-43.603 60.942c11.982-.027 21.69-9.735 21.718-21.721v-26.984-.002c-.018-.108-.087-.2-.184-.25l-9.764-5.645v32.562c-.007 1.396-.758 2.614-1.895 3.291l-23.098 13.33-.682.392-.034-.027c3.76 3.154 8.607 5.054 13.899 5.054h.035zm-46.694-19.941.056.102c3.777 6.435 10.77 10.754 18.77 10.754 3.995 0 7.738-1.076 10.852-2.9l23.395-13.489v-.001c.093-.068.154-.176.158-.299v-11.273l-28.242 16.283.018-.01c-.557.331-1.207.521-1.902.521-.694 0-1.345-.19-1.885-.512l-23.119-13.333-.687-.412.021-.132c-.228 1.255-.346 2.548-.346 3.868 0 3.99 1.081 7.726 2.911 10.833zm-6.089-50.422.056-.104c-1.875 3.216-2.948 6.956-2.948 10.947 0 8.005 4.319 15 10.858 18.838l23.345 13.466-.002-.001c.052.027.11.043.174.043.062 0 .121-.016.171-.042l9.764-5.646-28.107-16.215-.019-.01c-1.11-.64-1.857-1.838-1.857-3.211 0-.016 0-.033 0-.047v-27.438l-.15.048c-4.74 1.74-8.704 5.09-11.285 9.488zm80.219 18.749.02.01c1.129.635 1.904 1.829 1.947 3.214v27.443l.148-.05c8.181-3.115 13.992-11.032 13.992-20.306 0-8.003-4.328-14.995-10.873-18.818l-23.345-13.489h.002c-.051-.027-.11-.043-.174-.043-.062 0-.121.016-.171.042l-9.739 5.626zm9.715-14.703-.02.131c.218-1.235.332-2.506.332-3.804 0-12.012-9.738-21.75-21.75-21.75-3.994 0-7.736 1.076-10.85 2.899l-23.344 13.471h-.001c-.083.058-.137.153-.137.262 0 .012.001.023.002.033v11.275l28.217-16.283-.017.01c.56-.334 1.215-.525 1.914-.525s1.354.191 1.897.516l23.074 13.446.682.411v-.092zm-61.074-12.412v-.002c.009-1.395.762-2.614 1.899-3.289l23.094-13.331.687-.387.034.028c-3.772-3.15-8.631-5.046-13.931-5.046-11.997 0-21.726 9.714-21.75 21.707v26.907.002c.018.115.086.215.184.273l9.764 5.626zm5.307 35.553 12.601 7.25 12.552-7.25v-14.495l-12.601-7.25-12.576 7.25z"/></svg>