<svg enable-background="new 256.5 817 512 512" height="512" viewBox="256.5 817 512 512" width="512" xmlns="http://www.w3.org/2000/svg"><g fill="#fff"><path d="m400.533 817.434c-5.204 1.302-10.408 4.992-13.227 9.984l-2.602 4.775-.217 88.336-.217 88.335h10.625 10.408v-85.514-85.731h171.082 171.082v181.663 181.663l-41.199.218-41.415.217-5.638 2.821c-6.505 3.256-13.227 9.984-16.262 16.495-2.168 4.559-2.168 6.077-2.602 46.013l-.217 41.455h-127.931-128.149l.65 3.256c1.301 5.859 5.204 11.503 10.408 14.324l4.77 2.821 130.534.218 130.534.217 53.775-53.826 53.775-53.826-.217-194.686-.434-194.469-2.819-4.775c-1.734-3.039-4.336-5.643-7.589-7.597l-4.77-2.821h-174.334c-96.058 0-176.069.217-177.804.434z"/><path d="m704.317 944.837v64.027h10.408 10.408v-64.027-64.027h-10.408-10.408z"/><path d="m473.606 883.632c-22.334 6.511-39.681 24.525-44.884 47.315l-.651 2.821h26.02 26.02v-26.045c0-14.325 0-26.045-.217-25.828 0 .001-2.819.651-6.288 1.737z"/><path d="m502.228 911.63v28.649l20.382 20.402 20.382 20.402 2.819-4.341c7.589-11.72 10.408-31.688 6.938-46.447-4.987-20.619-21.032-38.633-41.198-45.579-10.19-3.689-9.323-6.076-9.323 26.914z"/><path d="m662.251 955.906v52.958h9.975 9.975v-52.958-53.175h-9.975-9.975z"/><path d="m619.318 976.742v32.122h10.408 10.408v-32.122-31.905h-10.408-10.408z"/><path d="m428.288 956.123c0 .217 1.084 4.124 2.602 8.465 2.819 9.116 10.191 20.836 16.696 26.696 20.599 18.666 50.305 22.355 73.94 9.333 3.036-1.736 5.638-3.256 6.072-3.473.217-.217-8.89-9.55-19.949-20.836l-20.599-20.619h-29.273c-16.479.217-29.489.217-29.489.434z"/><path d="m576.168 987.812v21.053h10.408 10.408v-21.053-21.053h-10.408-10.408z"/><path d="m361.72 1032.521c-29.272 5.209-56.811 21.27-75.458 44.06-28.622 34.727-37.295 80.305-22.984 122.846 6.505 19.316 15.612 33.858 31.224 49.268 19.081 18.883 38.596 29.518 64.833 35.161 11.708 2.604 37.946 2.604 49.872 0 16.696-3.689 32.742-10.418 47.053-19.968 10.625-7.162 29.272-26.262 35.995-37.114 29.489-47.966 25.586-107.436-9.975-150.192-19.298-23.223-46.402-38.85-76.325-44.06-11.276-1.954-33.393-1.954-44.235-.001zm49.004 151.496-45.535 45.578-26.454-26.479-26.454-26.479 15.178-15.192 15.395-15.41 11.276 11.286 11.275 11.286 30.356-30.386 29.923-30.169 15.179 15.193 15.395 15.41z"/><path d="m555.136 1083.526v10.418h85.215 84.999v-10.418-10.418h-84.999-84.999v10.418z"/><path d="m555.136 1126.501v10.418h85.215 84.999v-10.418-10.418h-84.999-84.999v10.418z"/><path d="m555.136 1169.041v9.983h85.215 84.999v-9.983-9.984h-84.999-84.999v9.984z"/></g></svg>