<svg enable-background="new 0 0 116 116" height="116" viewBox="0 0 116 116" width="116" xmlns="http://www.w3.org/2000/svg"><path d="m59.02.566c-31.039 0-56.414 24.922-56.414 55.961 0 10.422 2.945 20.391 8.156 28.773l-10.196 30.134 31.266-9.969c7.93 4.305 17.219 6.797 27.188 6.797 31.039 0 56.414-24.922 56.414-55.734 0-31.04-25.375-55.962-56.414-55.962zm47.351 55.961c0 25.828-21.297 46.898-47.352 46.898-9.742 0-18.578-2.719-26.055-7.703l-18.125 5.664 5.891-17.445c-5.664-7.703-9.062-17.219-9.062-27.414 0-26.055 21.297-47.125 47.352-47.125s47.351 21.071 47.351 47.125zm-19.711 19.258c-1.133 3.398-6.797 6.344-9.289 6.57s-2.492 2.039-16.539-3.398-22.883-19.711-23.789-20.617c-.68-.906-5.438-7.477-5.438-14.273s3.398-9.969 4.758-11.328c1.133-1.359 2.719-1.812 3.625-1.812s1.812.227 2.719.227c.68 0 1.812-.453 3.172 2.266 1.133 2.719 3.852 9.516 4.078 10.195.453.68.68 1.359.227 2.266s-.68 1.586-1.359 2.266c-.68.906-1.586 1.812-2.039 2.492-.68.68-1.586 1.359-.68 2.719.68 1.359 3.625 5.891 7.703 9.516 5.211 4.758 9.742 6.117 11.102 6.797s2.039.68 2.945-.227 3.398-4.078 4.305-5.438 1.812-1.133 3.172-.68 8.156 3.625 9.516 4.531c1.359.68 2.266.906 2.492 1.586.452.452.452 3.17-.681 6.342z"/></svg>