<svg enable-background="new 0 0 116 116" height="116" viewBox="0 0 116 116" width="116" xmlns="http://www.w3.org/2000/svg"><path d="m107.271 90.368v1.438c0 2.877 0 7.912-1.078 10.789-.36.719-.72 1.438-1.799 1.798-1.798 1.079-18.342 11.509-46.394 11.509-28.771 0-46.394-11.509-46.394-11.509-.719-.359-1.438-1.438-1.438-1.798-1.079-3.236-1.438-8.271-1.438-11.148v-1.079c0-4.676.719-15.825 11.148-19.421h.36c9.71-2.518 17.263-7.553 18.701-8.632l.359-.359c2.158-1.079 4.675-.72 5.755 1.079 1.438 1.798 1.078 4.315-.72 5.754 0 0 0 .359-.36.359-8.631 5.755-16.543 8.632-21.218 9.711-4.676 1.799-5.035 6.474-5.396 12.228v.72c0 2.158 0 5.035.36 6.833 2.877 1.798 17.622 9.351 40.639 9.351 23.018 0 37.763-7.912 40.64-9.351.359-1.798.359-4.675.359-6.833v-.359c-.359-6.114-1.079-10.789-5.754-12.588-4.676-1.438-12.228-3.956-21.219-9.711-.359-.359-.359-.359-.359-.359-2.158-1.798-2.518-3.956-1.08-5.754.721-.72 1.439-1.079 2.519-1.438 1.079-.36 2.158 0 3.236.719 0 0 8.632 5.755 19.062 8.632h.359c10.431 3.594 10.79 14.743 11.15 19.419zm-49.63-26.973c-7.192 0-12.947-2.518-16.544-7.552-10.069-11.15-7.912-29.851-7.912-30.21.72-13.667 7.553-19.78 11.869-21.938 5.034-3.237 10.789-3.597 12.946-3.597h.359c4.676 0 8.991 1.438 12.946 3.597 5.035 2.877 11.15 9.351 11.869 21.938v.719c.359 16.543-3.956 25.175-7.911 29.491-3.958 4.675-9.711 7.192-16.904 7.552zm-16.904-35.605c-.359 2.878-.719 15.825 5.754 23.018 2.518 3.237 6.114 4.675 11.149 4.675h.36c5.035 0 8.99-1.438 11.509-4.675 6.474-7.192 5.755-21.219 5.394-23.736v-.36c-.359-15.465-10.789-17.623-16.903-17.623h-.359c-6.114 0-16.184 2.158-16.903 17.622v1.079z"/></svg>