<svg enable-background="new 0 0 4608 2146" height="2146" viewBox="0 0 4608 2146" width="4608" xmlns="http://www.w3.org/2000/svg"><path d="m1251.562 665.864h2100.883v1055.097h-2100.883z" fill="#ddd"/><path d="m1251.562 665.864h2100.883v175.627h-2100.883z" fill="#c6c6c6"/><path d="m1210.317 3.266h2187.367c22.617 0 39.914 18.628 39.914 39.917v287.39c0 22.618-18.627 39.916-39.914 39.916h-2187.367c-22.618 0-39.915-18.626-39.915-39.916v-287.39c0-22.62 17.297-39.917 39.915-39.917z" fill="#8db7e2"/><path d="m1210.317 405.082h2187.367c22.617 0 39.914 18.628 39.914 39.917v287.391c0 22.618-18.627 39.915-39.914 39.915h-2187.367c-22.618 0-39.915-18.627-39.915-39.915v-287.391c0-22.621 17.297-39.917 39.915-39.917z" fill="#8db7e2"/><path d="m1210.317 1775.512h2187.367c22.617 0 39.914 18.629 39.914 39.914v287.393c0 22.619-18.627 39.916-39.914 39.916h-2187.367c-22.618 0-39.915-18.629-39.915-39.916v-287.393c0-22.617 17.297-39.914 39.915-39.914z" fill="#8db7e2"/><path d="m1546.937 1896.588h710.495v125.068h-710.495z" fill="#2376c1"/><path d="m1546.937 526.158h574.783v123.739h-574.783z" fill="#2376c1"/><g fill="#8db7e2"><path d="m1371.309 884.067h1597.949v123.738h-1597.949z"/><path d="m1371.309 1084.975h1317.208v123.738h-1317.208z"/><path d="m1371.309 1287.213h1047.115v125.066h-1047.115z"/><path d="m1371.309 1488.121h1245.361v125.066h-1245.361z"/></g><path d="m1546.937 125.674h750.411v123.737h-750.411z" fill="#2376c1"/><path d="m1440.496 1952.471c3.992 3.992 3.992 9.314 0 11.975l-101.119 101.119c-3.993 3.992-9.314 3.992-11.975 0l-22.618-22.621c-3.992-3.988-3.992-9.311 0-11.971l71.847-71.85-71.847-71.848c-3.992-3.992-3.992-9.312 0-11.975l22.618-22.619c3.991-3.99 9.313-3.99 11.975 0z" fill="#2376c1"/><path d="m1440.496 180.226c3.992 3.992 3.992 9.313 0 11.975l-101.119 101.118c-3.993 3.991-9.314 3.991-11.975 0l-22.618-22.618c-3.992-3.992-3.992-9.314 0-11.975l71.847-73.179-71.847-73.179c-3.992-3.992-3.992-9.312 0-11.975l22.618-22.618c3.991-3.992 9.313-3.992 11.975 0z" fill="#2376c1"/><path d="m1379.292 656.549c-3.991 3.992-9.314 3.992-11.975 0l-101.12-101.119c-3.991-3.991-3.991-9.314 0-11.975l22.62-22.618c3.991-3.992 9.312-3.992 11.975 0l71.848 71.848 73.177-71.848c3.992-3.992 9.314-3.992 11.975 0l22.62 22.618c3.992 3.992 3.992 9.314 0 11.975z" fill="#2376c1"/></svg>