<svg enable-background="new 0 0 4608 2146" height="2146" viewBox="0 0 4608 2146" width="4608" xmlns="http://www.w3.org/2000/svg"><path d="m675.153 3.809h3257.693v1820.969h-3257.693z" fill="#d4efff"/><path d="m675.153 1824.777h3257.693v317.414h-3257.693z" fill="#34495e"/><path d="m775.39 1896.11 125.63 72.506-125.63 72.504z" fill="#ecf0f1"/><path d="m975.863 1941.719h2823.335v83.531h-2823.335z" fill="#2c3e50"/><path d="m975.863 1941.719h868.719v83.531h-868.719z" fill="#ecf0f1"/><circle cx="1088.296" cy="405.925" fill="#2a80bb" r="285.674"/><path d="m3744.4 938.517 188.446 164.388v721.873h-3257.693v-222.861l742.753-623.806 371.043 311.903 293.359-246.082 896.117-753.612z" fill="#3497da"/><g fill="#8e44ad"><circle cx="2371.325" cy="647.997" r="314.076"/><path d="m2371.325 275.783c205.659.002 372.378 166.721 372.378 372.381 0 205.659-166.719 372.379-372.378 372.379s-372.379-166.72-372.379-372.379c.184-205.584 166.797-372.195 372.379-372.381m0-66.823c-242.473 0-439.038 196.563-439.038 439.036 0 242.474 196.565 439.038 439.038 439.038 242.474 0 439.038-196.564 439.038-439.038 0-242.473-196.564-439.036-439.038-439.036z" opacity=".5"/><path d="m2371.325 161.181c268.861 0 486.815 217.954 486.815 486.815s-217.954 486.816-486.815 486.816-486.816-217.955-486.816-486.816c.368-268.707 218.108-486.448 486.816-486.815m0-66.826c-305.676 0-553.474 247.8-553.474 553.475 0 305.674 247.798 553.474 553.474 553.474s553.473-247.8 553.473-553.474c0-305.675-247.797-553.475-553.473-553.475z" opacity=".25"/></g><path d="m2371.325 806.036c-143.385-.064-268.543-97.182-304.218-236.057-42.935 168.061 58.5 339.107 226.562 382.041 168.062 42.935 339.108-58.501 382.042-226.562 13.031-51.008 13.031-104.472 0-155.479-35.69 138.938-160.939 236.07-304.386 236.057z" fill="#662f84" opacity=".5"/><path d="m2963.892 1064.646v92.554l-517.89-572.353s-79.521 690.13-107.922 1271.838l281.666 285.506h1313.101v-126.8z" opacity=".2"/><path d="m3092.027 1167.892v385.575c.917 98.202-24.711 194.826-74.174 279.662-29.445 51.505-70.308 95.568-119.449 128.805-47.443 32.478-103.554 49.94-161.049 50.118-46.107 0-92.383 1.338-138.325-1.17-65.519-4.567-127.546-31.25-175.915-75.68-56.831-50.17-99.854-114.071-124.963-185.604-2.913-7.897-7.15-15.24-12.529-21.717-32.411-38.257-64.486-77.017-98.399-114.104-47.009-50.146-103.287-90.708-165.724-119.448-31.282-13.496-52.864-42.802-56.466-76.68-4.847-39.761 14.867-66.824 47.945-86.037 35.083-18.656 74.887-26.559 114.438-22.721 46.419 2.297 91.564 15.948 131.476 39.761l6.683 3.175c0-14.869-1.837-27.732-1.837-40.428 0-195.63 0-436.866 0-632.495.335-67.076 54.983-121.18 122.06-120.843 6.969.034 13.919.669 20.778 1.896 61.072 8.423 105.51 62.229 102.241 123.792v201.811 53.626c55.886-39.861 133.505-26.87 173.366 29.016 8.422 11.808 14.713 25 18.586 38.979 33.25-25.747 77.319-32.798 116.943-18.712 40.687 13.373 70.809 47.917 78.518 90.048l8.355-5.18c57.341-37.061 133.869-20.617 170.93 36.725.328.51.654 1.02.976 1.533 10.253 16.979 15.629 36.459 15.535 56.297z" fill="#ecf0f1"/><path d="m1614.036 772.289h-364.695c-79.475 3.045-146.369-58.913-149.413-138.388-2.262-59.011 31.736-113.421 85.765-137.263 0-4.678 0-8.019 0-12.696 1.217-94.748 79.013-170.572 173.761-169.354 68.312.877 129.596 42.199 156.018 105.202 15.405-13.423 35.199-20.733 55.631-20.549 47.388.092 85.778 38.482 85.87 85.87.028 16.429-4.734 32.51-13.699 46.276 57.653 10.295 99.782 60.217 100.236 118.78-.559 68.089-56.211 122.832-124.302 122.272-1.725-.012-3.449-.062-5.172-.15z" fill="#fff"/><path d="m1458.001 772.289h-365.196c-79.484 2.744-146.144-59.468-148.887-138.953-2.029-58.804 31.918-112.926 85.737-136.697 0-4.678 0-8.019 0-12.696.343-94.757 77.436-171.294 172.191-170.952 69.518.252 132.014 42.427 158.257 106.801 15.405-13.423 35.199-20.733 55.632-20.549 47.388.092 85.778 38.482 85.87 85.87.028 16.429-4.734 32.51-13.699 46.276 57.652 10.295 99.779 60.217 100.236 118.78-.54 68.089-56.177 122.85-124.267 122.308-1.959-.016-3.918-.079-5.874-.188z" fill="#fff" opacity=".6"/><path d="m1306.979 772.289h-364.529c-79.475 3.045-146.369-58.913-149.414-138.388-2.26-59.011 31.736-113.421 85.765-137.263 0-4.678 0-8.019 0-12.696.523-94.755 77.764-171.143 172.519-170.62 69.397.384 131.73 42.538 157.928 106.804 15.408-13.425 35.198-20.734 55.633-20.549 47.385.091 85.775 38.483 85.868 85.868.027 16.43-4.731 32.511-13.698 46.276 57.651 10.296 99.781 60.218 100.236 118.78-.72 68.089-56.499 122.701-124.587 121.981-1.91-.018-3.816-.084-5.721-.193z" fill="#fff" opacity=".3"/></svg>