<svg enable-background="new 674 0 3260 2146" height="2146" viewBox="674 0 3260 2146" width="3260" xmlns="http://www.w3.org/2000/svg"><path d="m1443.954 0h1720.092v2146h-1720.092z" fill="#66b27f"/><path d="m1641.869 206.084h1396.422v1805.991h-1396.422z" fill="#231f20" opacity=".15"/><path d="m1605.852 170.066h1396.422v1805.991h-1396.422z" fill="#fff"/><g opacity=".5"><path d="m1810.696 1727.766h347.56c17.91 0 32.43 14.521 32.43 32.431v55.327c0 17.908-14.52 32.428-32.43 32.428h-347.56c-17.91 0-32.429-14.52-32.429-32.428v-55.327c.003-17.912 14.519-32.431 32.429-32.431z" opacity=".2"/><path d="m1801.042 1708.457h347.56c17.91 0 32.43 14.52 32.43 32.429v55.328c0 17.909-14.52 32.428-32.43 32.428h-347.56c-17.91 0-32.428-14.519-32.428-32.428v-55.328c0-17.909 14.518-32.429 32.428-32.429z" fill="#8db7e2"/></g><g opacity=".5"><path d="m2286.115 1727.766h212.768c17.909 0 32.43 14.521 32.43 32.431v55.327c0 17.908-14.521 32.428-32.43 32.428h-212.768c-17.911 0-32.43-14.52-32.43-32.428v-55.327c.001-17.912 14.519-32.431 32.43-32.431z" opacity=".2"/><path d="m2276.46 1708.457h212.769c17.909 0 32.43 14.52 32.43 32.429v55.328c0 17.909-14.521 32.428-32.43 32.428h-212.769c-17.91 0-32.429-14.519-32.429-32.428v-55.328c0-17.909 14.519-32.429 32.429-32.429z" fill="#8db7e2"/></g><path d="m2043.021 1374.514h679.893c17.911 0 32.429 14.521 32.429 32.431v114.489c0 17.911-14.518 32.43-32.429 32.43h-679.893c-17.91 0-32.431-14.519-32.431-32.43v-114.489c.002-17.912 14.521-32.431 32.431-32.431z" opacity=".15"/><path d="m1946.85 1278.341h679.893c17.91 0 32.43 14.52 32.43 32.431v114.49c0 17.91-14.52 32.43-32.43 32.43h-679.894c-17.909 0-32.428-14.52-32.428-32.43v-114.49c0-17.913 14.518-32.431 32.429-32.431z" fill="#79aad3"/><path d="m2256.284 598.325h-315.995c-7.854-.066-14.225-6.381-14.358-14.233v-57.803c.041-8.288 6.151-15.295 14.358-16.461h315.995c8.349 1.185 14.505 8.403 14.356 16.832v57.432c-.131 7.852-6.5 14.167-14.356 14.233z" fill="#8db7e2" opacity=".5"/><g fill="#b0afad"><path d="m1864.415 598.325h-81.442c-7.854-.066-14.225-6.381-14.357-14.233v-57.803c.041-8.288 6.15-15.295 14.357-16.461h81.442c8.349 1.185 14.505 8.403 14.358 16.832v57.432c-.132 7.852-6.502 14.167-14.358 14.233z"/><path d="m2503.587 598.325h-169.695c-7.901.001-14.346-6.333-14.481-14.233v-57.803c.051-8.33 6.227-15.352 14.481-16.461h169.695c8.346 1.185 14.504 8.403 14.356 16.832v57.432c-.133 7.852-6.504 14.167-14.356 14.233z"/><path d="m2854.982 598.325h-268.098c-7.854-.066-14.223-6.381-14.356-14.233v-57.803c.041-8.288 6.15-15.295 14.356-16.461h268.098c8.347 1.185 14.502 8.403 14.355 16.832v57.432c-.131 7.852-6.501 14.167-14.355 14.233z"/><path d="m1782.973 775.818h128.479c7.929 0 14.357 6.427 14.357 14.356v60.154c0 7.93-6.43 14.356-14.357 14.356h-128.479c-7.931 0-14.357-6.427-14.357-14.356v-60.154c-.002-7.928 6.426-14.356 14.357-14.356z"/><path d="m1982.991 775.818h94.19c7.93 0 14.358 6.427 14.358 14.356v60.154c0 7.93-6.429 14.356-14.358 14.356h-94.191c-7.928 0-14.356-6.427-14.356-14.356v-60.154c0-7.928 6.428-14.356 14.357-14.356z"/><path d="m2409.395 775.818h214.625c7.93 0 14.356 6.427 14.356 14.356v60.154c0 7.93-6.428 14.356-14.356 14.356h-214.625c-7.931 0-14.357-6.427-14.357-14.356v-60.154c-.002-7.928 6.426-14.356 14.357-14.356z"/><path d="m2696.798 775.818h64.734c7.928 0 14.356 6.427 14.356 14.356v60.154c0 7.93-6.43 14.356-14.356 14.356h-64.734c-7.93 0-14.356-6.427-14.356-14.356v-60.154c-.002-7.928 6.426-14.356 14.356-14.356z"/></g><path d="m2149.221 775.818h180.215c7.932 0 14.358 6.427 14.358 14.356v60.154c0 7.93-6.428 14.356-14.358 14.356h-180.215c-7.931 0-14.357-6.427-14.357-14.356v-60.154c-.002-7.928 6.426-14.356 14.357-14.356z" fill="#8db7e2" opacity=".5"/><path d="m2557.304 1042.056h94.193c7.93 0 14.356 6.428 14.356 14.357v60.154c0 7.93-6.428 14.358-14.356 14.358h-94.193c-7.929 0-14.356-6.43-14.356-14.358v-60.154c-.002-7.93 6.427-14.357 14.356-14.357z" fill="#b0afad"/><path d="m1782.973 1042.056h158.185c7.928 0 14.356 6.428 14.356 14.357v60.154c0 7.93-6.43 14.358-14.356 14.358h-158.185c-7.931 0-14.357-6.43-14.357-14.358v-60.154c-.002-7.93 6.426-14.357 14.357-14.357z" fill="#b0afad"/><path d="m2016.533 1042.056h461.927c7.93 0 14.356 6.428 14.356 14.357v60.154c0 7.93-6.428 14.358-14.356 14.358h-461.927c-7.928 0-14.357-6.43-14.357-14.358v-60.154c0-7.93 6.429-14.357 14.357-14.357z" fill="#79aad3"/></svg>