<svg enable-background="new 0 0 4608 2146" height="2146" viewBox="0 0 4608 2146" width="4608" xmlns="http://www.w3.org/2000/svg"><ellipse cx="2304" cy="1073" fill="#56b5ef" rx="1071.27" ry="1073"/><path d="m1850.286 681.671h1172.095v1072.999h-1172.095z" opacity=".15"/><path d="m1812.477 631.178h1159.492v1085.622h-1159.492z" fill="#fff"/><path d="m1774.667 593.307h1159.491v1073h-1159.491z" opacity=".15"/><path d="m1711.651 530.188h1172.095v1098.246h-1172.095z" fill="#fff"/><path d="m1661.239 492.317h1159.491v1072.998h-1159.491z" opacity=".15"/><path d="m1636.031 441.823h1146.891v1085.623h-1146.891z" fill="#fff"/><path d="m1780.213 850.573h899.363c37.863 0 68.559 30.746 68.559 68.671v17.547c0 37.927-30.695 68.673-68.559 68.673h-899.363c-37.865 0-68.562-30.746-68.562-68.673v-17.547c0-37.925 30.697-68.671 68.562-68.671z" fill="#231f20"/><path d="m1772.651 896.397h871.005v61.099h-871.005z" fill="#231f20"/><path d="m1780.213 828.734h899.363c37.863 0 68.559 30.746 68.559 68.672v17.547c0 37.926-30.695 68.673-68.559 68.673h-899.363c-37.865 0-68.562-30.747-68.562-68.673v-17.547c0-37.926 30.697-68.672 68.562-68.672z" fill="#ddd"/><path d="m1772.651 874.558h871.005v61.099h-871.005z" fill="#8db7e2"/><path d="m1780.213 1077.419h899.363c37.863 0 68.559 30.745 68.559 68.672v17.546c0 37.926-30.695 68.671-68.559 68.671h-899.363c-37.865 0-68.562-30.745-68.562-68.671v-17.546c0-37.927 30.697-68.672 68.562-68.672z" fill="#231f20"/><path d="m1772.651 1125.388h718.634v61.099h-718.634z" fill="#231f20"/><path d="m1780.213 1055.58h899.363c37.863 0 68.559 30.744 68.559 68.673v17.546c0 37.926-30.695 68.671-68.559 68.671h-899.363c-37.865 0-68.562-30.745-68.562-68.671v-17.546c0-37.929 30.697-68.673 68.562-68.673z" fill="#ddd"/><path d="m1772.651 1103.549h718.634v61.097h-718.634z" fill="#8db7e2"/><path d="m1780.213 1306.41h899.363c37.863 0 68.559 30.744 68.559 68.671v17.546c0 37.927-30.695 68.673-68.559 68.673h-899.363c-37.865 0-68.562-30.746-68.562-68.673v-17.546c0-37.927 30.697-68.671 68.562-68.671z" fill="#231f20"/><path d="m1772.651 1354.378h810.005v61.099h-810.005z" fill="#231f20"/><path d="m1780.213 1284.57h899.363c37.863 0 68.559 30.744 68.559 68.671v17.548c0 37.926-30.695 68.673-68.559 68.673h-899.363c-37.865 0-68.562-30.747-68.562-68.673v-17.548c0-37.927 30.697-68.671 68.562-68.671z" fill="#ddd"/><path d="m1772.651 1332.54h810.005v61.097h-810.005z" fill="#8db7e2"/><ellipse cx="2227.247" cy="637.993" fill="#8db7e2" rx="138.384" ry="138.607"/><path d="m2203.175 681.671v-18.053c1.031-6.294 3.681-12.209 7.688-17.168 4.883-6.13 10.814-11.345 17.518-15.4 5.569-3.529 10.654-7.772 15.124-12.623 2.397-3.077 3.764-6.831 3.907-10.73.286-3.945-1.477-7.761-4.664-10.1-4.058-2.567-8.816-3.804-13.611-3.533-12.307.569-24.31 4.03-35.036 10.099l-11.092-22.47c14.803-8.364 31.528-12.717 48.522-12.623 12.009-.654 23.868 2.918 33.526 10.099 8.265 6.529 12.942 16.602 12.603 27.14.158 6.841-1.635 13.584-5.168 19.44-5.28 7.289-11.861 13.538-19.409 18.431-5.822 3.398-11.461 7.106-16.888 11.108-1.766 2.524-7.059 5.808-7.059 9.973v16.411h-25.961zm3.781 25.247c-.227-4.669 1.457-9.229 4.663-12.624 3.706-3.162 8.502-4.749 13.359-4.417 4.625-.151 9.134 1.474 12.603 4.543 5.996 7.345 5.996 17.903 0 25.247-3.436 3.138-7.955 4.813-12.603 4.671-4.88.323-9.686-1.312-13.359-4.545-3.456-3.6-5.16-8.538-4.663-13.506z" fill="#fff"/></svg>