<svg enable-background="new 0 0 4608 2146" height="2146" viewBox="0 0 4608 2146" width="4608" xmlns="http://www.w3.org/2000/svg"><path d="m1443.954 0h1720.092v2146h-1720.092z" fill="#66b27f"/><path d="m1641.869 206.084h1396.422v1805.991h-1396.422z" fill="#231f20" opacity=".15"/><path d="m1605.851 170.066h1396.422v1805.991h-1396.422z" fill="#fff"/><g opacity=".5"><path d="m1810.696 1727.766h347.56c17.91 0 32.429 14.52 32.429 32.43v55.327c0 17.909-14.519 32.428-32.429 32.428h-347.56c-17.91 0-32.428-14.519-32.428-32.428v-55.327c.001-17.911 14.518-32.43 32.428-32.43z" opacity=".2"/><path d="m1801.042 1708.457h347.559c17.911 0 32.43 14.52 32.43 32.429v55.328c0 17.909-14.519 32.428-32.43 32.428h-347.559c-17.91 0-32.428-14.519-32.428-32.428v-55.328c0-17.909 14.518-32.429 32.428-32.429z" fill="#8db7e2"/></g><g opacity=".5"><path d="m2286.115 1727.766h212.768c17.909 0 32.429 14.52 32.429 32.43v55.327c0 17.909-14.52 32.428-32.429 32.428h-212.768c-17.911 0-32.43-14.519-32.43-32.428v-55.327c.001-17.911 14.519-32.43 32.43-32.43z" opacity=".2"/><path d="m2276.46 1708.457h212.769c17.909 0 32.429 14.52 32.429 32.429v55.328c0 17.909-14.52 32.428-32.429 32.428h-212.769c-17.91 0-32.429-14.519-32.429-32.428v-55.328c0-17.909 14.519-32.429 32.429-32.429z" fill="#8db7e2"/></g><path d="m2043.021 1374.514h679.893c17.911 0 32.429 14.52 32.429 32.43v114.49c0 17.911-14.518 32.429-32.429 32.429h-679.893c-17.91 0-32.43-14.518-32.43-32.429v-114.49c.001-17.911 14.52-32.43 32.43-32.43z" opacity=".15"/><path d="m1946.849 1278.341h679.893c17.91 0 32.43 14.519 32.43 32.43v114.491c0 17.91-14.52 32.429-32.43 32.429h-679.893c-17.909 0-32.428-14.519-32.428-32.429v-114.491c0-17.912 14.518-32.43 32.428-32.43z" fill="#79aad3"/><path d="m2256.284 598.325h-315.995c-7.854-.066-14.225-6.381-14.358-14.233v-57.803c.041-8.288 6.151-15.295 14.358-16.461h315.995c8.349 1.185 14.505 8.403 14.357 16.832v57.432c-.132 7.852-6.501 14.167-14.357 14.233z" fill="#8db7e2" opacity=".5"/><g fill="#b0afad"><path d="m1864.415 598.325h-81.443c-7.854-.066-14.224-6.381-14.357-14.233v-57.803c.041-8.288 6.151-15.295 14.357-16.461h81.443c8.349 1.185 14.505 8.403 14.358 16.832v57.432c-.133 7.852-6.502 14.167-14.358 14.233z"/><path d="m2503.587 598.325h-169.695c-7.902.001-14.346-6.333-14.482-14.233v-57.803c.051-8.33 6.227-15.352 14.482-16.461h169.695c8.346 1.185 14.504 8.403 14.357 16.832v57.432c-.134 7.852-6.504 14.167-14.357 14.233z"/><path d="m2854.982 598.325h-268.097c-7.854-.066-14.223-6.381-14.357-14.233v-57.803c.041-8.288 6.151-15.295 14.357-16.461h268.097c8.347 1.185 14.503 8.403 14.356 16.832v57.432c-.132 7.852-6.502 14.167-14.356 14.233z"/><path d="m1782.973 775.818h128.478c7.929 0 14.357 6.427 14.357 14.357v60.154c0 7.93-6.429 14.357-14.357 14.357h-128.478c-7.931 0-14.358-6.427-14.358-14.357v-60.154c-.001-7.929 6.427-14.357 14.358-14.357z"/><path d="m1982.991 775.818h94.191c7.93 0 14.358 6.427 14.358 14.357v60.154c0 7.93-6.429 14.357-14.358 14.357h-94.191c-7.929 0-14.357-6.427-14.357-14.357v-60.154c0-7.929 6.428-14.357 14.357-14.357z"/><path d="m2409.394 775.818h214.625c7.93 0 14.357 6.427 14.357 14.357v60.154c0 7.93-6.428 14.357-14.357 14.357h-214.625c-7.93 0-14.357-6.427-14.357-14.357v-60.154c-.001-7.929 6.427-14.357 14.357-14.357z"/><path d="m2696.798 775.818h64.734c7.928 0 14.357 6.427 14.357 14.357v60.154c0 7.93-6.43 14.357-14.357 14.357h-64.734c-7.93 0-14.357-6.427-14.357-14.357v-60.154c-.001-7.929 6.427-14.357 14.357-14.357z"/></g><path d="m2149.221 775.818h180.215c7.931 0 14.358 6.427 14.358 14.357v60.154c0 7.93-6.428 14.357-14.358 14.357h-180.215c-7.931 0-14.358-6.427-14.358-14.357v-60.154c-.001-7.929 6.427-14.357 14.358-14.357z" fill="#8db7e2" opacity=".5"/><path d="m2557.304 1042.056h94.193c7.93 0 14.357 6.427 14.357 14.357v60.154c0 7.93-6.428 14.359-14.357 14.359h-94.193c-7.929 0-14.357-6.43-14.357-14.359v-60.154c-.001-7.93 6.428-14.357 14.357-14.357z" fill="#b0afad"/><path d="m1782.973 1042.056h158.184c7.928 0 14.357 6.427 14.357 14.357v60.154c0 7.93-6.43 14.359-14.357 14.359h-158.184c-7.931 0-14.358-6.43-14.358-14.359v-60.154c-.001-7.93 6.427-14.357 14.358-14.357z" fill="#b0afad"/><path d="m2016.533 1042.056h461.927c7.93 0 14.357 6.427 14.357 14.357v60.154c0 7.93-6.428 14.359-14.357 14.359h-461.927c-7.928 0-14.357-6.43-14.357-14.359v-60.154c0-7.93 6.429-14.357 14.357-14.357z" fill="#79aad3"/></svg>