<svg enable-background="new 674 0 3260 2146" height="2146" viewBox="674 0 3260 2146" width="3260" xmlns="http://www.w3.org/2000/svg"><path d="m3933.735 1379.68c0 291.037-329.554 526.997-736.386 526.997-160.163 0-308.419-36.621-429.242-98.866-153.818 77.486-375.73 98.866-375.73 98.866s193.611-106.363 216.723-210.091c-92.976-88.237-148.3-198.02-148.3-317.194 0-291.077 329.554-526.995 736.386-526.995s736.549 236.206 736.549 527.283z" fill="#ed1c24"/><path d="m3234.467 1239.25c0-32.42-31.391-49.187-70.031-49.187-44.983 0-86.837 27.229-108.793 71.143l-186.197-93.099c53.553-100.431 159.009-169.473 326.381-169.473 164.24 0 286.628 69.042 286.628 199.832 0 160.04-167.372 188.299-167.372 268.833h-215.485c-.083-126.588 134.869-164.24 134.869-228.049zm-165.313 393.321c0-70.03 56.477-123.583 138.082-123.583s138.084 53.553 138.084 123.583c0 69.041-56.479 125.559-138.084 125.559s-138.082-56.518-138.082-125.559z" fill="#fff"/><path d="m674.812 1418.176c0 291.036 329.552 526.996 736.386 526.996 160.162 0 308.379-36.621 429.242-98.867 153.776 77.487 375.731 98.867 375.731 98.867s-193.612-106.363-216.722-210.09c92.975-88.238 148.299-198.021 148.299-317.194 0-291.077-329.554-526.996-736.345-526.996-406.792 0-736.591 236.207-736.591 527.284z" fill="#8cc63f"/><path d="m1409.755 1277.746c0-32.421-31.39-49.186-70.03-49.186-44.984 0-86.838 27.228-108.794 71.142l-186.237-93.099c53.552-100.431 159.009-169.473 326.38-169.473 164.242 0 286.67 69.042 286.67 199.832 0 160.04-167.412 188.299-167.412 268.833h-215.527c-.001-126.589 134.95-164.24 134.95-228.049zm-165.435 393.32c0-70.029 56.477-123.582 138.083-123.582 81.605 0 138.083 53.553 138.083 123.582 0 69.042-56.478 125.559-138.083 125.559-81.606 0-138.083-56.517-138.083-125.559z" fill="#fff"/><path d="m2993.75 727.824c0 254.663-252.438 467.141-588.004 516.286-47.91 7.003-148.3 271.634-148.3 271.634s-32.461-247.577-116.085-263.643c-228.297-43.83-620.382-188.792-620.382-524.277 0-291.077 329.553-526.996 736.386-526.996 406.831 0 736.385 235.919 736.385 526.996z" fill="#0071bc"/><path d="m2294.438 587.395c0-32.421-31.39-49.187-70.03-49.187-44.983 0-86.837 27.229-108.793 71.142l-186.238-93.098c53.552-100.432 159.009-169.473 326.381-169.473 164.24 0 286.669 69.041 286.669 199.832 0 160.039-167.412 188.299-167.412 268.834h-215.529c0-126.591 134.952-164.242 134.952-228.05zm-165.435 393.32c0-70.03 56.477-123.583 138.083-123.583 81.605 0 138.083 53.347 138.083 123.583 0 69.042-56.478 125.559-138.083 125.559-81.607-.001-138.083-56.517-138.083-125.559z" fill="#fff"/></svg>