<svg enable-background="new 674 0 3260 2146" height="2146" viewBox="674 0 3260 2146" width="3260" xmlns="http://www.w3.org/2000/svg" xmlns:xlink="http://www.w3.org/1999/xlink"><linearGradient id="a"><stop offset="0" stop-color="#2b388f"/><stop offset=".3739" stop-color="#293181"/><stop offset="1" stop-color="#262261"/></linearGradient><linearGradient id="b" gradientTransform="matrix(1 0 0 -1 1908 2914)" gradientUnits="userSpaceOnUse" x1="-257.9219" x2="-153.5506" xlink:href="#a" y1="2344.0801" y2="1029.0093"/><linearGradient id="c" gradientTransform="matrix(1 0 0 -1 1908 2914)" gradientUnits="userSpaceOnUse" x1="972.9536" x2="1069.4883" xlink:href="#a" y1="2303.1914" y2="1086.8613"/><linearGradient id="d" gradientTransform="matrix(1 0 0 -1 1908 2914)" gradientUnits="userSpaceOnUse" x1="-218.6421" x2="-91.0529" y1="2418.4902" y2="2567.1641"><stop offset="0" stop-color="#3960ac"/><stop offset=".2542" stop-color="#3864ae"/><stop offset=".4793" stop-color="#356eb6"/><stop offset=".6934" stop-color="#3180c3"/><stop offset=".8995" stop-color="#2a9ad5"/><stop offset="1" stop-color="#26a9e0"/></linearGradient><linearGradient id="e" gradientTransform="matrix(1 0 0 -1 1908 2914)" gradientUnits="userSpaceOnUse" x1="110.8398" x2="22.2593" y1="2633.2803" y2="2515.9358"><stop offset="0" stop-color="#26a9e0"/><stop offset=".2702" stop-color="#2e8aca"/><stop offset=".5344" stop-color="#3473b9"/><stop offset=".7831" stop-color="#3865af"/><stop offset="1" stop-color="#3960ac"/></linearGradient><linearGradient id="f"><stop offset="0" stop-color="#26a9e0"/><stop offset=".2559" stop-color="#2a9bd6"/><stop offset=".7369" stop-color="#3377bc"/><stop offset="1" stop-color="#3960ac"/></linearGradient><linearGradient id="g" gradientTransform="matrix(1 0 0 -1 1908 2914)" gradientUnits="userSpaceOnUse" x1="920.0264" x2="980.0497" xlink:href="#f" y1="2523.7686" y2="2452.8408"/><linearGradient id="h" gradientTransform="matrix(1 0 0 -1 1908 2914)" gradientUnits="userSpaceOnUse" x1="675.6055" x2="797.9357" y1="2645.0645" y2="2490.989"><stop offset="0" stop-color="#26a9e0"/><stop offset=".0259" stop-color="#27a5dd"/><stop offset=".2915" stop-color="#3086c7"/><stop offset=".5481" stop-color="#376fb6"/><stop offset=".7894" stop-color="#3b61ac"/><stop offset="1" stop-color="#3c5ca9"/></linearGradient><linearGradient id="i" gradientTransform="matrix(1 0 0 -1 1908 2914)" gradientUnits="userSpaceOnUse" x1="360.728" x2="827.1827" xlink:href="#f" y1="1518.7861" y2="967.5908"/><path d="m2209.703 2136.539-1035.575-698.35-5.077-1408.305 1039.408 710.4z" fill="url(#b)"/><path d="m2403.375 2138.781 1035.574-698.345-5.076-1408.31-1030.984 707.546z" fill="url(#c)"/><path d="m1356.229 139.5-1.602-146.72s320.991 221.285 493.622 363.06c172.629 141.775 408.125 371.73 408.125 371.73l-35.438 1.725z" fill="url(#d)"/><path d="m1612.112 158.166v-165.385s268.081 165.96 394.495 293.903c126.412 127.943 297.715 442.591 297.715 442.591h-27.393s-286.897-276.036-402.854-370.862c-115.956-94.825-261.963-200.247-261.963-200.247z" fill="url(#e)"/><path d="m3254.635 139.5 1.598-146.72s-426.006 323.36-552.309 414.929c-126.309 91.569-353.514 321.591-353.514 321.591l43.596-.024z" fill="url(#g)"/><path d="m2998.752 167.386v-174.605s-292.789 115.821-464.061 316.379c-171.271 200.559-219.998 420.115-219.998 420.115h19.237s192.604-210.047 351.64-326.751c159.037-116.704 313.182-235.138 313.182-235.138z" fill="url(#h)"/><path d="m2207.166 738.555 195.723 1.117v1399.109l-195.723-2.242z" fill="url(#i)"/></svg>