<svg enable-background="new 674.5 0 3260 2146" height="2146" viewBox="674.5 0 3260 2146" width="3260" xmlns="http://www.w3.org/2000/svg"><path d="m1056.891 478.526 2197.653-397.815c117.411-20.72 229.296 56.634 251.396 174.045l223.771 1237.646c20.72 117.41-56.633 229.297-174.043 251.396l-2197.652 396.435c-117.412 20.72-229.297-56.633-251.396-174.043l-223.773-1237.648c-22.101-117.411 56.634-229.297 174.046-250.016z" opacity=".15"/><path d="m1052.365 432.943 2189.365-401.959c117.409-22.1 229.295 55.252 250.016 172.664l226.534 1232.121c22.101 117.411-55.252 229.296-172.664 250.017l-2189.363 401.96c-117.41 22.101-229.298-55.253-250.017-172.664l-226.533-1232.123c-22.099-117.411 55.253-229.296 172.662-250.016z" fill="#d94d6a"/><path d="m1081.755 249.23 2223.895-205.815c118.793-11.049 223.771 75.973 234.822 194.765l116.028 1251.458c11.051 118.793-75.971 223.772-194.763 234.822l-2223.897 205.813c-118.792 11.051-223.771-75.972-234.82-194.765l-116.029-1251.457c-11.052-118.791 75.972-223.771 194.764-234.821z" opacity=".15"/><path d="m1081.755 209.173 2223.895-205.815c118.793-11.049 223.771 75.972 234.822 194.763l116.027 1251.46c11.051 118.794-75.971 223.771-194.763 234.823l-2223.896 205.812c-118.792 11.051-223.771-75.971-234.82-194.764l-116.029-1251.459c-11.052-117.411 75.972-223.77 194.764-234.82z" fill="#92cab1"/><path d="m1096.948 42.035h2233.565c118.793 0 215.483 96.691 215.483 215.482v1256.984c0 118.793-96.69 215.484-215.483 215.484h-2233.565c-118.791 0-215.482-96.691-215.482-215.484v-1256.983c0-118.791 96.691-215.483 215.482-215.483z" opacity=".15"/><path d="m1096.948 3.358h2233.565c118.793 0 215.483 96.692 215.483 215.483v1256.984c0 118.794-96.69 215.484-215.483 215.484h-2233.565c-118.791 0-215.482-96.69-215.482-215.484v-1256.984c0-120.173 96.691-215.483 215.482-215.483z" fill="#f6c358"/><path d="m1913.3 1035.189c-30.391 0-60.778-1.38-91.166-5.523-82.879 73.209-182.334 125.699-290.075 153.324-23.48 6.905-48.345 11.051-71.828 13.813-15.192 1.379-27.625-9.67-30.388-23.483-2.764-15.193 8.288-24.862 16.576-37.296 40.058-45.582 85.64-82.878 114.647-187.856-129.844-73.208-212.721-187.857-212.721-316.318 0-222.389 252.777-404.722 566.332-404.722 313.558 0 566.336 180.951 566.336 404.722.001 223.771-255.54 403.339-567.713 403.339z" fill="#ed7864"/><path d="m1873.24 866.672c0-236.203 267.974-426.823 598.104-426.823 330.133 0 598.104 192.001 598.104 426.823 0 135.367-88.405 256.921-225.153 334.275 31.77 111.886 80.115 151.942 121.555 198.908 9.67 12.432 22.102 22.1 17.957 38.676-2.764 15.193-16.576 26.245-31.77 24.863-26.246-2.764-51.109-8.288-75.973-15.194-113.269-27.626-219.627-82.878-308.03-161.611-31.771 4.145-64.921 5.525-96.691 5.525-330.129 1.38-598.103-189.239-598.103-425.442z" fill="#50b5d8"/></svg>