<svg enable-background="new 673.999 0 3260 2146" height="2146" viewBox="673.999 0 3260 2146" width="3260" xmlns="http://www.w3.org/2000/svg"><path d="m675.153 3.809h3257.692v1820.969h-3257.692z" fill="#d4efff"/><path d="m675.153 1824.777h3257.692v317.414h-3257.692z" fill="#34495e"/><path d="m775.391 1896.11 125.629 72.506-125.629 72.504z" fill="#ecf0f1"/><path d="m975.863 1941.719h2823.335v83.531h-2823.335z" fill="#2c3e50"/><path d="m975.863 1941.719h868.719v83.531h-868.719z" fill="#ecf0f1"/><circle cx="1088.296" cy="405.925" fill="#2a80bb" r="285.674"/><path d="m3744.4 938.517 188.445 164.389v721.873h-3257.693v-222.861l742.754-623.806 371.043 311.902 293.358-246.082 896.117-753.611z" fill="#3497da"/><g fill="#8e44ad"><circle cx="2371.325" cy="647.997" r="314.076"/><path d="m2371.325 275.783c205.659.002 372.378 166.721 372.378 372.381 0 205.659-166.719 372.379-372.378 372.379s-372.38-166.72-372.38-372.379c.185-205.584 166.798-372.195 372.38-372.381m0-66.823c-242.474 0-439.038 196.563-439.038 439.036 0 242.474 196.564 439.038 439.038 439.038s439.038-196.564 439.038-439.038c0-242.473-196.564-439.036-439.038-439.036z" opacity=".5"/><path d="m2371.325 161.181c268.86 0 486.814 217.954 486.814 486.815s-217.954 486.816-486.814 486.816c-268.861 0-486.816-217.955-486.816-486.816.368-268.707 218.108-486.448 486.816-486.815m0-66.826c-305.677 0-553.474 247.8-553.474 553.475 0 305.674 247.797 553.474 553.474 553.474 305.676 0 553.473-247.8 553.473-553.474 0-305.675-247.797-553.475-553.473-553.475z" opacity=".25"/></g><path d="m2371.325 806.036c-143.386-.064-268.543-97.183-304.218-236.058-42.936 168.062 58.5 339.107 226.562 382.041 168.062 42.936 339.108-58.5 382.042-226.562 13.031-51.008 13.031-104.472 0-155.479-35.69 138.939-160.94 236.071-304.386 236.058z" fill="#662f84" opacity=".5"/><path d="m2963.893 1064.646v92.554l-517.891-572.354s-79.521 690.13-107.922 1271.838l281.666 285.507h1313.102v-126.801z" opacity=".2"/><path d="m3092.027 1167.892v385.575c.917 98.202-24.711 194.826-74.174 279.662-29.445 51.505-70.309 95.568-119.449 128.805-47.443 32.479-103.555 49.94-161.049 50.118-46.107 0-92.384 1.339-138.325-1.17-65.52-4.566-127.546-31.25-175.915-75.68-56.831-50.17-99.854-114.071-124.963-185.604-2.913-7.896-7.15-15.239-12.529-21.717-32.411-38.257-64.486-77.017-98.398-114.104-47.01-50.146-103.287-90.708-165.725-119.448-31.281-13.496-52.863-42.802-56.466-76.681-4.847-39.761 14.867-66.823 47.944-86.036 35.084-18.656 74.888-26.56 114.438-22.722 46.419 2.297 91.564 15.948 131.477 39.762l6.683 3.175c0-14.869-1.837-27.732-1.837-40.428 0-195.63 0-436.866 0-632.495.335-67.076 54.983-121.181 122.061-120.844 6.969.034 13.919.67 20.778 1.896 61.071 8.423 105.51 62.229 102.24 123.792v201.812 53.625c55.887-39.86 133.506-26.869 173.366 29.017 8.422 11.808 14.713 25 18.586 38.979 33.25-25.747 77.319-32.798 116.943-18.712 40.687 13.373 70.809 47.917 78.518 90.049l8.355-5.181c57.341-37.061 133.868-20.617 170.93 36.726.328.51.654 1.02.976 1.532 10.254 16.979 15.629 36.459 15.535 56.297z" fill="#ecf0f1"/><path d="m1614.036 772.289h-364.695c-79.475 3.045-146.368-58.913-149.413-138.388-2.262-59.012 31.736-113.421 85.766-137.264 0-4.678 0-8.019 0-12.695 1.217-94.748 79.013-170.572 173.761-169.354 68.312.877 129.596 42.199 156.019 105.202 15.404-13.423 35.198-20.733 55.631-20.549 47.388.092 85.777 38.481 85.869 85.87.028 16.429-4.733 32.51-13.698 46.275 57.653 10.295 99.782 60.217 100.235 118.78-.559 68.089-56.211 122.832-124.302 122.272-1.726-.011-3.449-.061-5.173-.149z" fill="#fff"/><path d="m1458.001 772.289h-365.196c-79.484 2.744-146.144-59.468-148.887-138.953-2.029-58.804 31.918-112.926 85.737-136.697 0-4.678 0-8.019 0-12.695.343-94.758 77.436-171.295 172.19-170.952 69.519.252 132.015 42.427 158.258 106.801 15.404-13.423 35.198-20.733 55.631-20.549 47.389.092 85.778 38.481 85.871 85.87.027 16.429-4.734 32.51-13.699 46.275 57.652 10.295 99.779 60.217 100.236 118.78-.541 68.089-56.178 122.85-124.268 122.308-1.958-.016-3.917-.079-5.873-.188z" fill="#fff" opacity=".6"/><path d="m1306.979 772.289h-364.529c-79.476 3.045-146.369-58.913-149.414-138.388-2.261-59.012 31.735-113.421 85.765-137.264 0-4.678 0-8.019 0-12.695.523-94.755 77.764-171.144 172.52-170.62 69.396.384 131.729 42.538 157.928 106.804 15.408-13.425 35.198-20.734 55.633-20.549 47.385.091 85.775 38.482 85.868 85.868.027 16.43-4.731 32.511-13.698 46.275 57.651 10.296 99.781 60.219 100.236 118.78-.72 68.089-56.499 122.701-124.587 121.981-1.911-.017-3.817-.083-5.722-.192z" fill="#fff" opacity=".3"/></svg>