<svg enable-background="new 0 0 4608 2146" height="2146" viewBox="0 0 4608 2146" width="4608" xmlns="http://www.w3.org/2000/svg"><path d="m2565.236 2059.826c-84.9 84.9-225.97 84.9-312.178 0l-1110.259-1110.262c-84.901-84.902-84.901-225.97 0-312.178 84.903-84.902 225.972-84.902 312.18 0l1110.258 1110.26c86.209 87.512 86.209 227.276-.001 312.18z" fill="#f0f3fc"/><path d="m2396.74 2147.34c-16.98-1.307-33.963-2.613-50.941-7.836l11.755-44.414c14.368 2.613 27.431 6.533 41.799 6.533zm50.942-2.613-7.837-45.717c14.368-1.307 27.43-6.529 40.491-10.449l16.98 43.104c-16.98 6.53-32.653 10.448-49.634 13.062zm-148.907-23.512c-15.674-7.838-28.736-16.98-43.104-27.43l28.735-35.268c10.45 9.145 23.511 15.676 35.267 20.9zm242.951-11.756-24.816-37.879c10.45-7.836 20.899-16.98 32.654-26.123l1.307-1.307 32.656 32.656-2.614 2.611c-11.755 10.45-23.512 20.899-39.187 30.042zm-321.322-49.633-32.655-32.656 32.655-32.654 32.654 32.654zm394.471-26.125-37.882-24.818c7.836-11.754 14.369-24.816 18.288-36.574l43.104 15.676c-6.533 16.98-13.062 32.654-23.51 45.716zm-458.474-37.879-32.655-32.656 32.655-32.654 32.655 32.654zm492.433-56.168-45.715-6.529c1.305-9.146 1.305-18.287 1.305-27.43 0-5.227 0-9.145 0-14.371l45.718-2.609v16.98c2.611 11.754 1.304 22.203-1.308 33.959zm-559.049-9.142-32.654-32.656 32.654-32.654 32.655 32.654zm-64.003-65.311-32.653-32.654 32.653-32.652 32.655 32.652zm573.417-14.367c-2.613-14.367-9.145-26.123-15.673-37.881l41.797-20.898c7.838 15.676 14.368 31.35 18.285 47.023zm-638.725-50.939-32.655-32.656 32.655-32.654 32.655 32.654zm600.846-20.901c-2.614-5.225-7.838-9.145-11.757-14.367l-18.286-18.287 32.654-32.656 18.285 18.287c5.227 6.529 10.452 10.449 15.676 16.98zm-666.156-44.41-32.654-32.654 32.654-32.656 32.654 32.656zm603.458-20.9-32.654-32.654 32.654-32.654 32.655 32.654zm-668.768-44.411-32.654-32.654 32.654-32.652 32.655 32.652zm602.153-20.898-32.654-32.654 32.654-32.654 32.656 32.654zm-667.463-44.408-32.654-32.654 32.654-32.656 32.656 32.656zm603.462-20.901-32.656-32.654 32.656-32.656 32.654 32.656zm-668.771-44.41-32.655-32.654 32.655-32.656 32.654 32.656zm602.155-19.594-32.655-32.654 32.655-32.654 32.653 32.654zm-668.77-44.41-32.655-32.654 32.655-32.654 32.654 32.654zm604.766-22.205-32.655-32.656 32.655-32.652 32.655 32.652zm-668.77-44.41-32.653-32.654 32.653-32.654 32.655 32.654zm602.153-19.594-32.653-32.654 32.653-32.652 32.655 32.652zm-666.155-44.408-32.655-32.654 32.655-32.656 32.653 32.656zm602.153-22.207-32.655-32.654 32.655-32.654 32.653 32.654zm-668.769-44.408-32.654-32.656 32.654-32.654 32.654 32.654zm604.766-19.594-32.655-32.656 32.655-32.654 32.655 32.654zm-668.769-44.41-32.655-32.656 32.655-32.654 32.655 32.654zm602.152-22.207-32.655-32.652 32.655-32.656 32.655 32.656zm-668.767-44.408-32.655-32.656 32.655-32.654 32.655 32.654zm603.459-19.594-32.655-32.654 32.655-32.655 32.653 32.655zm-667.463-44.41-32.653-32.655 32.653-32.654 32.655 32.654zm602.152-20.9-32.653-32.654 32.653-32.655 32.655 32.655zm-668.767-44.409-32.654-32.655 32.654-32.655 32.654 32.655zm603.459-20.9-32.655-32.655 32.655-32.654 32.655 32.654zm-667.462-45.716c-10.449-14.368-19.593-27.429-27.431-43.104l41.798-20.898c6.532 11.756 14.369 23.511 23.512 33.96zm603.459-19.592-32.654-32.655 32.654-32.655 32.654 32.655zm-66.616-65.31-32.655-32.656 32.655-32.653 32.654 32.653zm-585.172-6.531c-5.225-16.98-7.838-33.962-7.838-50.941l45.718-2.614c1.306 14.369 2.612 27.43 6.53 41.799zm521.168-58.778-32.654-32.656 32.654-32.655 32.655 32.655zm-480.676-35.267-45.717-6.532c2.612-16.979 6.531-33.96 11.756-49.634l43.104 15.674c-3.918 13.062-6.532 27.43-9.143 40.492zm414.06-30.044-32.655-32.653 32.655-32.655 32.655 32.655zm-385.324-47.022-37.88-24.818c9.144-14.367 19.592-27.43 31.348-40.49l33.962 32.653c-11.756 10.45-19.593 20.899-27.43 32.655zm321.322-18.286-15.675-15.674c-5.224-5.225-10.448-9.144-16.979-14.369l28.735-36.573c7.837 6.53 14.369 11.756 19.593 18.286l15.674 15.674zm-263.849-39.186-24.819-37.88c14.368-9.142 28.737-16.979 44.412-23.511l16.979 43.104c-13.061 3.919-24.816 10.451-36.572 18.287zm197.233-13.063c-11.756-6.53-24.817-10.449-37.88-14.367l10.45-44.411c16.98 5.225 32.654 10.449 47.022 16.98zm-121.475-16.98-7.837-45.716c11.756-1.307 26.124-2.612 37.88-2.612h11.756l-1.307 45.716c-2.611 0-6.531 0-9.144 0-9.142 0-19.592 1.307-31.348 2.612z" fill="#4574ff"/><path d="m1316.522 374.842c-53.554 0-97.964-44.409-97.964-97.964 0-53.553 44.41-97.964 97.964-97.964 53.553 0 97.964 44.411 97.964 97.964-1.306 53.555-44.411 97.964-97.964 97.964z" fill="#3d6084"/><path d="m1849.447 374.842c-53.555 0-97.964-44.409-97.964-97.964 0-53.553 44.409-97.964 97.964-97.964 53.554 0 97.964 44.411 97.964 97.964 1.307 53.555-43.104 97.964-97.964 97.964z" fill="#3d6084"/><path d="m1279.948 903.849c-56.165 0-101.882-45.716-101.882-101.882 0-56.167 45.717-101.883 101.882-101.883 56.167 0 101.883 45.717 101.883 101.883-1.306 56.165-45.716 101.882-101.883 101.882z" fill="#2c4277"/><path d="m1849.447 910.379c-53.555 0-97.964-44.409-97.964-97.964 0-53.553 44.409-97.964 97.964-97.964 53.554 0 97.964 44.411 97.964 97.964 1.307 53.555-43.104 97.964-97.964 97.964z" fill="#3d6084"/><path d="m2384.984 374.842c-53.556 0-97.964-44.409-97.964-97.964 0-53.553 44.408-97.964 97.964-97.964 53.555 0 97.964 44.411 97.964 97.964-1.304 53.555-44.409 97.964-97.964 97.964z" fill="#3d6084"/><path d="m2384.984 910.379c-53.556 0-97.964-44.409-97.964-97.964 0-53.553 44.408-97.964 97.964-97.964 53.555 0 97.964 44.411 97.964 97.964-1.304 53.555-44.409 97.964-97.964 97.964z" fill="#3d6084"/><path d="m1316.522 1443.305c-53.554 0-97.964-44.412-97.964-97.965s44.41-97.963 97.964-97.963c53.553 0 97.964 44.41 97.964 97.963-1.306 53.553-44.411 97.965-97.964 97.965z" fill="#3d6084"/><path d="m1849.447 1443.305c-53.555 0-97.964-44.412-97.964-97.965s44.409-97.963 97.964-97.963c53.554 0 97.964 44.41 97.964 97.963 1.307 53.553-43.104 97.965-97.964 97.965z" fill="#2c4277"/><path d="m1316.522 1978.842c-53.554 0-97.964-44.41-97.964-97.967 0-53.551 44.41-97.961 97.964-97.961 53.553 0 97.964 44.41 97.964 97.961-1.306 53.557-44.411 97.967-97.964 97.967z" fill="#3d6084"/><path d="m1849.447 1978.842c-53.555 0-97.964-44.41-97.964-97.967 0-53.551 44.409-97.961 97.964-97.961 53.554 0 97.964 44.41 97.964 97.961 1.307 53.557-43.104 97.967-97.964 97.967z" fill="#3d6084"/><path d="m2384.984 1443.305c-53.556 0-97.964-44.412-97.964-97.965s44.408-97.963 97.964-97.963c53.555 0 97.964 44.41 97.964 97.963-1.304 53.553-44.409 97.965-97.964 97.965z" fill="#3d6084"/><path d="m2384.984 1978.842c-53.556 0-97.964-44.41-97.964-97.967 0-53.551 44.408-97.961 97.964-97.961 53.555 0 97.964 44.41 97.964 97.961-1.304 53.557-44.409 97.967-97.964 97.967z" fill="#2c4277"/><g fill="#3d6084"><path d="m2917.908 1978.842c-53.553 0-97.964-44.41-97.964-97.967 0-53.551 44.411-97.961 97.964-97.961 53.554 0 97.965 44.41 97.965 97.961 1.307 53.557-44.411 97.967-97.965 97.967z"/><path d="m3453.447 374.842c-53.556 0-97.965-44.409-97.965-97.964 0-53.553 44.409-97.964 97.965-97.964 53.551 0 97.962 44.411 97.962 97.964-1.305 53.555-44.411 97.964-97.962 97.964z"/><path d="m3453.447 910.379c-53.556 0-97.965-44.409-97.965-97.964 0-53.553 44.409-97.964 97.965-97.964 53.551 0 97.962 44.411 97.962 97.964-1.305 53.555-44.411 97.964-97.962 97.964z"/><path d="m3453.447 1443.305c-53.556 0-97.965-44.412-97.965-97.965s44.409-97.963 97.965-97.963c53.551 0 97.962 44.41 97.962 97.963-1.305 53.553-44.411 97.965-97.962 97.965z"/><path d="m3453.447 1978.842c-53.556 0-97.965-44.41-97.965-97.967 0-53.551 44.409-97.961 97.965-97.961 53.551 0 97.962 44.41 97.962 97.961-1.305 53.557-44.411 97.967-97.962 97.967z"/></g><path d="m2917.908 1632.699c-122.78 0-223.358-99.268-223.358-223.355v-1165.12c0-122.781 99.271-223.359 223.358-223.359 122.783 0 223.359 99.271 223.359 223.359v1165.12c.001 124.088-100.576 223.355-223.359 223.355z" fill="#daefe0"/><path d="m2917.908 1656.213c-135.844 0-245.562-111.027-245.562-245.564v-1166.425c0-135.844 111.025-245.563 245.562-245.563s245.563 111.025 245.563 245.563v1165.12c1.307 135.842-109.718 246.869-245.563 246.869zm0-1611.837c-111.025 0-199.847 88.821-199.847 199.848v1165.12c0 111.023 88.821 199.846 199.847 199.846 111.028 0 199.848-88.822 199.848-199.846v-1165.12c0-109.721-88.819-199.848-199.848-199.848z" fill="#84be93"/><path d="m2917.908 374.842c-53.553 0-97.964-44.409-97.964-97.964 0-53.553 44.411-97.964 97.964-97.964 53.554 0 97.965 44.411 97.965 97.964 1.307 53.555-44.411 97.964-97.965 97.964z" fill="#435e49"/><path d="m2917.908 910.379c-53.553 0-97.964-44.409-97.964-97.964 0-53.553 44.411-97.964 97.964-97.964 53.554 0 97.965 44.411 97.965 97.964 1.307 53.555-44.411 97.964-97.965 97.964z" fill="#435e49"/><path d="m2917.908 1443.305c-53.553 0-97.964-44.412-97.964-97.965s44.411-97.963 97.964-97.963c53.554 0 97.965 44.41 97.965 97.963 1.307 53.553-44.411 97.965-97.965 97.965z" fill="#435e49"/></svg>