<svg enable-background="new 690.678 0 3260 2146" height="2146" viewBox="690.678 0 3260 2146" width="3260" xmlns="http://www.w3.org/2000/svg"><path d="m884.841 114.818v1657.708c0 64.376 51.731 116.107 116.108 116.107h1007.039v-1888.775h-1007.039c-64.377 0-116.108 51.732-116.108 114.96z" fill="#345ea5"/><path d="m2007.988-.142h1632.418c64.377 0 116.108 51.732 116.108 116.108v1657.708c0 64.377-51.731 116.109-116.108 116.109h-1632.418z" fill="#dbdbde"/><g fill="#fff"><path d="m1100.964 416.01h448.34v63.229h-448.342z"/><path d="m1100.964 559.709h677.106v63.227h-677.106z"/><path d="m1100.964 706.856h521.913v63.228h-521.913z"/><path d="m1100.964 1073.575h295.442v63.228h-295.442z"/><path d="m1100.964 1225.321h677.106v63.227h-677.106z"/><path d="m1100.964 1370.17h486.276v63.227h-486.277z"/><path d="m2181.578 156.203h1402.498v936.915h-1402.498z"/><path d="m2180.428 1049.433h1403.648v464.435h-1403.648z"/></g><path d="m2327.576 297.602h1121.998v498.921h-1121.998z" fill="#9ab7de"/><circle cx="2878.229" cy="440.151" fill="#fff" r="89.668"/><path d="m2327.576 796.523h1120.85l-277.053-302.343-223.021 187.384-209.227-159.793-197.729 158.645-213.822-135.652v251.76h.002z" fill="#3d6083"/><path d="m2819.6 796.523 129.904-113.81-17.244-13.795-145.998 127.604h33.338z" fill="#030403" opacity=".1"/><path d="m2411.494 796.523 133.354-116.107-18.393-10.347-146 126.454z" fill="#030403" opacity=".1"/><path d="m2879.377 972.412h-540.307c-2.298 0-4.599-2.3-4.599-4.6v-67.826c0-2.3 2.302-4.599 4.599-4.599h540.307c2.299 0 4.6 2.299 4.6 4.599v67.826c0 2.3-1.149 4.6-4.6 4.6z" fill="#b7b7be"/><path d="m3011.582 1301.194h-672.512c-2.298 0-4.599-2.301-4.599-4.6v-67.825c0-2.301 2.302-4.6 4.599-4.6h672.512c2.299 0 4.598 2.299 4.598 4.6v67.825c1.148 2.301-1.151 4.6-4.598 4.6z" fill="#b7b7be"/><path d="m3316.221 1156.346h-977.15c-2.297 0-4.598-2.3-4.598-4.599v-112.66c0-2.299 2.301-4.598 4.598-4.598h977.15c2.299 0 4.602 2.299 4.602 4.598v112.66c-.001 2.299-2.303 4.599-4.602 4.599z" fill="#46b08d"/><path d="m3143.783 1117.26h-770.226c-2.299 0-4.598-2.299-4.598-4.599v-35.638c0-2.3 2.299-4.599 4.598-4.599h770.226c2.299 0 4.598 2.299 4.598 4.599v35.638c0 2.299-2.299 4.599-4.598 4.599z" fill="#295849"/><path d="m3280.584 1081.622-28.738 28.74-5.748 5.747c-1.15 1.149-3.449 1.149-5.748 0l-5.75-5.747-14.943-14.945c-1.149-1.149-1.149-3.448 0-5.747l5.748-5.749c1.15-1.149 3.449-1.149 5.748 0l11.496 11.496 26.441-26.44c1.147-1.149 3.447-1.149 5.746 0l5.748 5.748c1.15 3.448 1.15 5.747 0 6.897z" fill="#fff"/><circle cx="2572.438" cy="1885.186" fill="#345ea5" r="260.957"/><path d="m3163.328 1624.229c144.121 0 260.955 116.836 260.955 260.957 0 144.123-116.834 260.957-260.955 260.957-144.125 0-260.959-116.834-260.959-260.957 0-144.122 116.834-260.957 260.959-260.957z" fill="#345ea5"/><path d="m2656.357 1784.021-45.981-45.982-147.148 148.297 147.148 147.146 45.981-44.834-102.312-102.312z" fill="#fff"/><path d="m3082.855 1988.646 45.984 44.836 147.146-147.147-147.146-148.297-45.984 45.981 102.312 102.314z" fill="#fff"/></svg>