<svg enable-background="new 0 0 4608 2146" height="2146" viewBox="0 0 4608 2146" width="4608" xmlns="http://www.w3.org/2000/svg"><path d="m868.163 114.818v1657.708c0 64.376 51.732 116.108 116.108 116.108h1007.04v-1888.776h-1007.04c-64.376 0-116.108 51.732-116.108 114.96z" fill="#345ea5"/><path d="m1991.311-.142h1632.417c64.377 0 116.109 51.732 116.109 116.108v1657.708c0 64.377-51.732 116.109-116.109 116.109h-1632.417z" fill="#dbdbde"/><g fill="#fff"><path d="m1084.286 416.01h448.34v63.228h-448.342z"/><path d="m1084.286 559.709h677.107v63.227h-677.107z"/><path d="m1084.286 706.856h521.913v63.228h-521.913z"/><path d="m1084.286 1073.575h295.443v63.228h-295.443z"/><path d="m1084.286 1225.321h677.107v63.227h-677.107z"/><path d="m1084.286 1370.17h486.276v63.226h-486.277z"/><path d="m2164.9 156.203h1402.499v936.915h-1402.499z"/><path d="m2163.75 1049.433h1403.649v464.434h-1403.649z"/></g><path d="m2310.898 297.602h1121.998v498.921h-1121.998z" fill="#9ab7de"/><circle cx="2861.551" cy="440.151" fill="#fff" r="89.668"/><path d="m2310.898 796.523h1120.85l-277.053-302.342-223.02 187.383-209.227-159.793-197.729 158.645-213.822-135.652v251.759z" fill="#3d6083"/><path d="m2802.922 796.523 129.904-113.809-17.244-13.795-145.998 127.604z" fill="#030403" opacity=".1"/><path d="m2394.816 796.523 133.354-116.107-18.393-10.347-146 126.454z" fill="#030403" opacity=".1"/><path d="m2862.699 972.412h-540.307c-2.297 0-4.598-2.3-4.598-4.599v-67.827c0-2.299 2.301-4.598 4.598-4.598h540.307c2.299 0 4.6 2.299 4.6 4.598v67.827c0 2.299-1.149 4.599-4.6 4.599z" fill="#b7b7be"/><path d="m2994.904 1301.194h-672.512c-2.297 0-4.598-2.3-4.598-4.599v-67.825c0-2.301 2.301-4.6 4.598-4.6h672.512c2.299 0 4.598 2.299 4.598 4.6v67.825c1.148 2.3-1.15 4.599-4.598 4.599z" fill="#b7b7be"/><path d="m3299.543 1156.346h-977.15c-2.297 0-4.598-2.3-4.598-4.599v-112.66c0-2.299 2.301-4.598 4.598-4.598h977.15c2.299 0 4.602 2.299 4.602 4.598v112.66c0 2.299-2.303 4.599-4.602 4.599z" fill="#46b08d"/><path d="m3127.105 1117.26h-770.225c-2.299 0-4.598-2.299-4.598-4.599v-35.638c0-2.299 2.299-4.598 4.598-4.598h770.225c2.299 0 4.598 2.299 4.598 4.598v35.638c0 2.299-2.299 4.599-4.598 4.599z" fill="#295849"/><path d="m3263.906 1081.622-28.738 28.74-5.748 5.747c-1.15 1.15-3.449 1.15-5.748 0l-5.75-5.747-14.943-14.945c-1.15-1.149-1.15-3.448 0-5.747l5.748-5.749c1.15-1.149 3.449-1.149 5.748 0l11.496 11.496 26.441-26.44c1.148-1.15 3.447-1.15 5.746 0l5.748 5.748c1.151 3.448 1.151 5.747 0 6.897z" fill="#fff"/><circle cx="2555.76" cy="1885.185" fill="#345ea5" r="260.957"/><path d="m3146.65 1624.229c144.121 0 260.955 116.835 260.955 260.957s-116.834 260.956-260.955 260.956c-144.125 0-260.959-116.834-260.959-260.956s116.834-260.957 260.959-260.957z" fill="#345ea5"/><path d="m2639.68 1784.021-45.982-45.982-147.148 148.297 147.148 147.147 45.982-44.835-102.312-102.312z" fill="#fff"/><path d="m3066.178 1988.647 45.984 44.835 147.146-147.147-147.146-148.297-45.984 45.982 102.312 102.314z" fill="#fff"/></svg>