<svg enable-background="new 0 0 4608 2146" height="2146" viewBox="0 0 4608 2146" width="4608" xmlns="http://www.w3.org/2000/svg"><path d="m1119.113 4.356h2137.289v2137.289h-2137.289z" fill="#5443b9"/><path d="m1831.106 102.517h386.1v386.099h-386.1z" fill="#fff"/><path d="m2243.381 514.792h-438.451v-438.452h438.451zm-386.097-52.353h333.746v-333.746h-333.746z" fill="#5443b9"/><path d="m1831.106 488.616h386.1v386.099h-386.1z" fill="#fff"/><path d="m2243.381 900.89h-438.451v-438.451h438.451zm-386.097-52.35h333.746v-333.748h-333.746z" fill="#5443b9"/><path d="m1831.106 876.024h386.1v386.099h-386.1z" fill="#fff"/><path d="m2243.381 1288.299h-438.451v-438.452h438.451zm-386.097-52.352h333.746v-333.747h-333.746z" fill="#5443b9"/><path d="m1831.106 1263.432h386.1v386.1h-386.1z" fill="#fff"/><path d="m2243.381 1675.707h-438.451v-438.451h438.451zm-386.097-52.352h333.746v-333.748h-333.746z" fill="#5443b9"/><path d="m2221.133 1263.432h386.098v386.1h-386.098z" fill="#fff"/><path d="m2633.408 1675.707h-438.451v-438.451h438.451zm-386.1-52.352h333.747v-333.748h-333.747z" fill="#5443b9"/><path d="m1442.391 1263.432h386.098v386.1h-386.098z" fill="#fff"/><path d="m1854.665 1675.707h-438.451v-438.451h438.451zm-386.098-52.352h333.746v-333.748h-333.746z" fill="#5443b9"/><path d="m2605.924 489.925h386.1v386.099h-386.1z" fill="#fff"/><path d="m3018.198 902.2h-438.452v-438.451h438.452zm-386.099-52.353h333.747v-333.746h-333.747z" fill="#5443b9"/><path d="m2221.133 489.925h386.098v386.099h-386.098z" fill="#fff"/><path d="m2633.408 902.2h-438.451v-438.451h438.451zm-386.1-52.353h333.747v-333.746h-333.747z" fill="#5443b9"/><path d="m1442.391 489.925h386.098v386.099h-386.098z" fill="#fff"/><path d="m1854.665 902.2h-438.451v-438.451h438.451zm-386.098-52.353h333.746v-333.746h-333.746z" fill="#5443b9"/><path d="m1831.106 1652.148h386.1v386.1h-386.1z" fill="#fff"/><path d="m2243.381 2064.424h-438.451v-438.451h438.451zm-386.097-52.354h333.746v-333.746h-333.746z" fill="#5443b9"/><path d="m2552.261 1408.709c11.78 0 15.706-1.309 359.924-94.232 13.089-3.928 23.559-10.473 32.721-19.633 1.309-1.311 134.808-150.514 265.687-302.336 282.705-329.819 281.396-354.687 277.469-388.716-10.47-126.955-171.453-272.232-301.025-272.232-5.235 0-10.471 0-15.707 0-31.411 2.617-61.513 3.926-352.068 325.893-134.808 149.205-264.381 301.027-265.689 302.335-7.854 9.162-13.088 20.941-15.705 32.72-2.618 11.78-13.09 83.764-26.176 168.836-6.545 41.883-13.088 85.074-18.324 116.484-5.234 30.102-7.854 49.734-7.854 64.133v68.057z" fill="#fff"/><path d="m2748.583 1129.934 143.97 123.027 392.642-446.304-145.277-123.027z" fill="#ffc81a"/><path d="m2603.305 1006.905 145.278 123.028 391.334-446.304-143.968-123.028z" fill="#d0a700"/><path d="m2651.731 1238.564c22.249 18.324 44.499 40.574 62.822 62.822l179.308-48.426s-27.484-77.219-120.411-157.057c-90.308-77.219-168.837-90.308-168.837-90.308l-28.793 177.998c26.177 15.708 52.352 34.03 75.911 54.971z" fill="#e29563"/><path d="m2573.203 1183.594s-24.867 159.676-23.56 159.676c0 2.617 164.91-41.883 164.91-41.883-19.632-22.248-40.573-43.189-62.822-62.822-23.559-20.942-49.734-39.264-78.528-54.971z" fill="#363351"/><path d="m3001.82 564.467 41.512-48.88 290.297 246.532-41.514 48.883z" fill="#fff"/><path d="m3033.903 514.792 290.558 247.366s100.777-91.617 95.543-149.206c-7.853-95.542-149.203-218.571-243.439-210.717-58.897 2.617-142.662 112.557-142.662 112.557z" fill="#fc707b"/><g fill="#5443b9"><path d="m1734.254 1356.357v192.395h-65.44v-70.676h-60.206v70.676h-65.44v-192.395h65.44v68.059h60.206v-68.059z"/><path d="m2087.633 1437.504c13.09 11.777 19.633 26.176 19.633 44.498 0 11.781-2.617 23.559-9.162 34.029-6.544 10.473-15.705 18.324-28.793 24.867-13.088 6.545-30.104 9.162-49.735 9.162-13.087 0-27.485-1.309-40.572-3.926-13.089-2.617-24.868-7.854-35.337-13.088l22.249-48.426c7.854 3.926 17.016 7.852 24.868 10.471 9.161 2.617 17.015 3.926 26.177 3.926 7.852 0 13.088-1.309 18.322-3.926 5.235-2.619 6.545-6.545 6.545-11.779 0-5.236-2.619-7.854-6.545-10.473-3.927-2.615-11.779-3.926-22.25-3.926h-56.279l9.162-116.482h128.264v48.426h-74.603l-1.308 18.322h10.47c26.173 1.311 45.806 7.854 58.894 18.325z"/><path d="m2469.807 1365.52c13.088 5.234 23.559 14.396 30.104 24.865 6.543 10.473 10.47 23.559 10.47 37.957 0 14.396-3.927 27.484-10.47 37.955-6.545 10.471-17.016 19.633-30.104 24.867-13.087 5.234-28.793 9.162-45.809 9.162h-27.484v47.117h-65.441v-192.395h92.926c17.015 1.309 32.721 3.927 45.808 10.472zm-30.104 79.835c3.928-3.926 6.545-9.16 6.545-17.014 0-7.852-2.617-13.088-6.545-17.014-3.926-3.928-10.469-6.545-19.632-6.545h-23.558v44.498h23.558c7.854 2.62 14.398.001 19.632-3.925z"/></g></svg>