<svg version="1.1" xmlns="http://www.w3.org/2000/svg" width="565.895px" height="357.708px" viewBox="0 0 565.895 357.708" enable-background="new 0 0 565.895 357.708" xml:space="preserve"><g><g><path fill="#EBEBEB" d="M385.688,327.284l13.355-0.277l6.579-0.111c2.188-0.049,4.363-0.037,6.546-0.057l-0.446,0.445 l-0.054-11.189l0.5,0.5l-13.24-0.062c-4.414-0.006-8.826-0.113-13.24-0.164l0.272-0.271c-0.019,1.83-0.086,3.674-0.131,5.535 L385.688,327.284z M385.688,327.284l-0.143-5.535c-0.045-1.867-0.111-3.756-0.131-5.654l-0.003-0.27l0.276-0.004 c4.412-0.051,8.825-0.158,13.239-0.162l13.24-0.064l0.502-0.002l-0.003,0.502l-0.054,11.189l-0.003,0.449l-0.442-0.004 c-2.231-0.018-4.47-0.008-6.695-0.055l-6.661-0.111L385.688,327.284z"/></g><g><path fill="#EBEBEB" d="M400.459,341.395l13.355-0.279l6.578-0.111c2.188-0.047,4.364-0.037,6.547-0.055l-0.446,0.445 l-0.054-11.189l0.5,0.498l-13.24-0.062c-4.414-0.004-8.827-0.111-13.24-0.162l0.271-0.273c-0.019,1.832-0.086,3.674-0.131,5.537 L400.459,341.395z M400.459,341.395l-0.143-5.537c-0.045-1.865-0.112-3.754-0.131-5.652l-0.002-0.27l0.274-0.004 c4.413-0.053,8.826-0.158,13.24-0.164l13.239-0.062l0.502-0.002l-0.002,0.502l-0.055,11.189l-0.002,0.447l-0.443-0.002 c-2.23-0.018-4.469-0.008-6.694-0.057l-6.66-0.111L400.459,341.395z"/></g><rect x="370.916" y="330.204" fill="#EBEBEB" width="26.48" height="11.189"/><g><path fill="#EBEBEB" d="M413.131,72.741l13.355-0.279l6.58-0.112c2.188-0.047,4.362-0.038,6.545-0.055l-0.445,0.445l-0.054-11.189 l0.499,0.5l-13.24-0.062c-4.413-0.005-8.826-0.112-13.24-0.164l0.273-0.273c-0.02,1.831-0.086,3.673-0.131,5.536L413.131,72.741z M413.131,72.741l-0.142-5.536c-0.045-1.867-0.112-3.755-0.132-5.654l-0.002-0.27l0.274-0.003 c4.414-0.051,8.827-0.159,13.24-0.164l13.239-0.063l0.503-0.002l-0.003,0.502l-0.054,11.189l-0.002,0.449l-0.444-0.003 c-2.23-0.018-4.469-0.008-6.693-0.055l-6.661-0.112L413.131,72.741z"/></g><g><path fill="#EBEBEB" d="M427.903,86.851l13.355-0.279l6.579-0.112c2.188-0.047,4.363-0.037,6.546-0.055l-0.446,0.445 l-0.054-11.189l0.5,0.5l-13.239-0.063c-4.414-0.005-8.828-0.112-13.24-0.164l0.271-0.273c-0.019,1.831-0.086,3.673-0.131,5.536 L427.903,86.851z M427.903,86.851l-0.143-5.536c-0.045-1.867-0.112-3.755-0.131-5.654l-0.003-0.27l0.276-0.003 c4.413-0.051,8.825-0.159,13.239-0.164l13.24-0.063l0.501-0.002l-0.002,0.502L454.83,86.85l-0.002,0.449l-0.443-0.003 c-2.231-0.018-4.47-0.008-6.695-0.055l-6.66-0.112L427.903,86.851z"/></g><rect x="398.359" y="75.661" fill="#EBEBEB" width="26.48" height="11.19"/><rect x="226.697" y="288.817" fill="#EBEBEB" width="26.479" height="11.189"/><g><path fill="#EBEBEB" d="M238.405,274.708l-13.355,0.279l-6.579,0.11c-2.188,0.048-4.364,0.038-6.545,0.056l0.445-0.445 l0.054,11.189l-0.499-0.499l13.24,0.062c4.414,0.006,8.827,0.113,13.24,0.164l-0.272,0.272c0.02-1.831,0.086-3.674,0.131-5.536 L238.405,274.708z M238.405,274.708l0.143,5.535c0.045,1.867,0.112,3.756,0.131,5.654l0.002,0.27l-0.274,0.004 c-4.413,0.051-8.826,0.158-13.24,0.164l-13.24,0.062l-0.502,0.003l0.002-0.502l0.054-11.189l0.002-0.449l0.444,0.004 c2.231,0.018,4.469,0.008,6.694,0.055l6.662,0.111L238.405,274.708z"/></g><g><rect x="262.04" fill="none" stroke="#EBEBEB" stroke-miterlimit="10" width="242.767" height="183.155"/><g><circle fill="#A6A6A6" cx="268.34" cy="4.653" r="2.308"/><circle fill="#EBEBEB" cx="277.763" cy="4.653" r="2.308"/><circle fill="#FFC727" cx="287.188" cy="4.653" r="2.308"/></g><line fill="none" stroke="#EBEBEB" stroke-miterlimit="10" x1="262.04" y1="9.173" x2="504.806" y2="9.173"/></g><g><circle fill="#EBEBEB" cx="35.782" cy="62.399" r="35.782"/><circle fill="#DBDBDB" cx="37.421" cy="63.196" r="34.144"/><circle fill="#FFFFFF" cx="37.421" cy="63.196" r="31.988"/><path opacity="0.5" fill="#EBEBEB" d="M68.684,56.408c-14.566,8.826-38.506,23.303-51.887,31.24 c-3.754-3.168-6.766-7.183-8.741-11.752L52.311,34.88C60.551,39.219,66.663,47.053,68.684,56.408z"/><path opacity="0.5" fill="#EBEBEB" d="M69.386,64.313c-0.123,3.654-0.861,7.152-2.114,10.394 L27.376,93.575c-1.75-0.58-3.436-1.304-5.038-2.166C34.389,84.445,56.411,71.775,69.386,64.313z"/><g><rect x="37.112" y="33.531" fill="#C7C7C7" width="0.618" height="4.849"/><rect x="21.379" y="39.296" transform="matrix(-0.5 -0.866 0.866 -0.5 1.4052 80.0212)" fill="#C7C7C7" width="4.849" height="0.619"/><rect x="11.405" y="49.269" transform="matrix(-0.866 -0.5001 0.5001 -0.866 1.0146 99.4272)" fill="#C7C7C7" width="4.849" height="0.618"/><rect x="7.756" y="62.887" fill="#C7C7C7" width="4.848" height="0.618"/><rect x="13.524" y="74.39" transform="matrix(-0.5001 -0.8659 0.8659 -0.5001 -45.7665 127.2098)" fill="#C7C7C7" width="0.618" height="4.849"/><rect x="23.495" y="84.359" transform="matrix(-0.8663 -0.4994 0.4994 -0.8663 1.0838 173.8569)" fill="#C7C7C7" width="0.619" height="4.848"/><rect x="37.112" y="88.013" fill="#C7C7C7" width="0.618" height="4.85"/><rect x="48.616" y="86.486" transform="matrix(-0.5 -0.866 0.866 -0.5 1.3966 174.3961)" fill="#C7C7C7" width="4.848" height="0.618"/><rect x="58.591" y="76.511" transform="matrix(-0.8659 -0.5001 0.5001 -0.8659 75.4322 173.8575)" fill="#C7C7C7" width="4.849" height="0.618"/><rect x="62.239" y="62.887" fill="#C7C7C7" width="4.848" height="0.618"/><rect x="60.705" y="47.146" transform="matrix(-0.5001 -0.8659 0.8659 -0.5001 48.6028 127.1975)" fill="#C7C7C7" width="0.618" height="4.849"/><rect x="50.73" y="37.179" transform="matrix(-0.8659 -0.5001 0.5001 -0.8659 75.4298 99.4241)" fill="#C7C7C7" width="0.618" height="4.848"/></g><g><polygon fill="#C7C7C7" points="37.886,35.727 38.938,65.355 35.904,65.317 37.062,35.717"/><polygon fill="#A6A6A6" points="56.342,52.864 36.408,65.587 34.958,62.921 55.948,52.14"/><circle fill="#C7C7C7" cx="37.421" cy="63.196" r="1.036"/></g></g><g><g><rect x="477.871" y="34.361" fill="#EBEBEB" width="44.613" height="54.117"/><rect x="482.969" y="39.3" fill="#FFFFFF" width="34.418" height="44.238"/><rect x="482.969" y="39.3" fill="#DBDBDB" width="1.344" height="44.238"/><rect x="522.484" y="34.361" fill="#DBDBDB" width="1.345" height="54.117"/><rect x="494.503" y="45.399" fill="#DBDBDB" width="8.115" height="24.179"/><rect x="490.962" y="61.862" fill="none" stroke="#EBEBEB" stroke-miterlimit="10" width="21.64" height="11.846"/></g><g><rect x="514.917" y="101.445" fill="#EBEBEB" width="44.614" height="54.117"/><rect x="520.016" y="106.384" fill="#FFFFFF" width="34.418" height="44.238"/><rect x="520.016" y="106.384" fill="#DBDBDB" width="1.344" height="44.238"/><rect x="559.532" y="101.445" fill="#DBDBDB" width="1.344" height="54.117"/><rect x="533.893" y="117.819" fill="#EBEBEB" width="6.951" height="17.58"/><rect x="529.488" y="128.503" fill="none" stroke="#DBDBDB" stroke-miterlimit="10" width="18.678" height="12.118"/></g></g><g><polygon fill="#EBEBEB" points="14.671,327.167 131.436,327.167 135.191,253.075 10.915,253.075"/><g><polygon fill="none" stroke="#DBDBDB" stroke-miterlimit="10" points="19.109,261.725 124.043,261.725 122.45,286.536 20.475,286.536"/><polygon fill="none" stroke="#DBDBDB" stroke-miterlimit="10" points="22.324,293.821 23.434,316.127 121.056,316.127 122.45,293.821"/><polygon fill="none" stroke="#DBDBDB" stroke-miterlimit="10" points="82.886,276.463 61.888,276.463 61.205,271.172 83.569,271.172"/><polygon fill="none" stroke="#DBDBDB" stroke-miterlimit="10" points="82.886,307.62 61.888,307.62 61.205,302.327 83.569,302.327"/></g><g><polygon fill="#EBEBEB" points="30.864,327.167 29.73,335.237 27.45,351.456 22.99,351.456 22.99,327.167"/><polygon fill="#DBDBDB" points="30.864,327.167 29.73,335.237 22.99,335.237 22.99,327.167"/></g><g><polygon fill="#EBEBEB" points="115.243,327.167 116.376,335.237 118.657,351.456 123.116,351.456 123.116,327.167"/><polygon fill="#DBDBDB" points="115.243,327.167 116.376,335.237 123.116,335.237 123.116,327.167"/></g></g></g><g ><g><g><g><rect x="57.634" y="19.728" fill="#2196F3" width="326.521" height="218.976"/></g><g><rect x="57.634" y="19.728" fill="#263238" width="326.521" height="9.076"/><g><circle fill="#C7C7C7" cx="62.597" cy="24.266" r="2.251"/><circle fill="#FFFFFF" cx="71.789" cy="24.266" r="2.251"/><circle fill="#FFC727" cx="80.981" cy="24.266" r="2.251"/></g></g></g><g><g display="none"><rect x="109.031" y="147.798" fill="#FFFFFF" width="223.729" height="18.187"/><g ><rect x="114.294" y="152.007" fill="#FFC727" width="130.171" height="9.768"/><polygon opacity="0.2" fill="#FFFFFF" points="128.35,161.775 121.685,161.775 114.294,152.007 120.96,152.007"/><polygon opacity="0.2" fill="#FFFFFF" points="142.407,161.775 135.741,161.775 128.35,152.007 135.016,152.007"/><polygon opacity="0.2" fill="#FFFFFF" points="156.462,161.775 149.797,161.775 142.407,152.007 149.072,152.007"/><polygon opacity="0.2" fill="#FFFFFF" points="170.519,161.775 163.853,161.775 156.462,152.007 163.128,152.007"/><polygon opacity="0.2" fill="#FFFFFF" points="184.575,161.775 177.909,161.775 170.519,152.007 177.185,152.007"/><polygon opacity="0.2" fill="#FFFFFF" points="198.631,161.775 191.965,161.775 184.575,152.007 191.241,152.007"/><polygon opacity="0.2" fill="#FFFFFF" points="212.687,161.775 206.021,161.775 198.631,152.007 205.297,152.007"/><polygon opacity="0.2" fill="#FFFFFF" points="226.744,161.775 220.078,161.775 212.687,152.007 219.353,152.007"/><polygon opacity="0.2" fill="#FFFFFF" points="240.799,161.775 234.133,161.775 226.744,152.007 233.409,152.007"/><polygon opacity="0.2" fill="#FFFFFF" points="244.471,152.007 244.471,156.859 240.796,152.007"/></g></g><g ><svg viewBox="0 0 100 100" xmlns="http://www.w3.org/2000/svg" x="160" y="60" width="106" height="106"><g class="ldl-scale" style=" /*animation:spinLoadingIcon 1s infinite;*/ transform-origin: 50% 50%; transform: rotate(0deg)"><g class="ldl-ani"><g class="ldl-layer"><g class="ldl-ani"><g><g class="ldl-layer"><g class="ldl-ani" style=" transform-box: view-box; transform-origin: 50px 50px; animation: spinLoadingIcon .583333s infinite;"><path stroke-miterlimit="10" stroke-width="6" stroke="#e0e0e0" fill="none" d="M50 30c-11.046 0-20 8.954-20 20s8.954 20 20 20" style="stroke-width: 6; stroke: rgb(224, 224, 224);"></path></g></g><g class="ldl-layer"><g class="ldl-ani" style=" transform-box: view-box; transform-origin: 50px 50px; animation: spinLoadingIcon .666667s infinite;" ><path stroke-miterlimit="10" stroke-linecap="round" stroke-width="6" stroke="#abbd81" fill="none" d="M50 70c11.046 0 20-8.954 20-20s-8.954-20-20-20" style="stroke-width: 6; stroke: rgb(171, 189, 129);"></path></g></g></g></g></g><g class="ldl-layer"><g class="ldl-ani"><g><g class="ldl-layer"><g class="ldl-ani" style=" transform-box: view-box; opacity: 1; transform-origin: 50px 50px; animation: spinLoadingIcon .75s infinite;"><path stroke-miterlimit="10" stroke-width="6" stroke="#e0e0e0" fill="none" d="M50 20c-16.569 0-30 13.431-30 30 0 16.569 13.431 30 30 30 11.226 0 21.012-6.166 26.156-15.296" style="stroke-width: 6; stroke: rgb(224, 224, 224);"></path></g></g><g class="ldl-layer"><g class="ldl-ani" style=" transform-box: view-box; transform-origin: 50px 50px; animation: spinLoadingIcon .833333s infinite;"><path stroke-miterlimit="10" stroke-linecap="round" stroke-width="6" stroke="#f8b26a" fill="none" d="M76.156 64.704A29.875 29.875 0 0 0 80 50c0-16.569-13.431-30-30-30" style="stroke-width: 6; stroke: rgb(248, 178, 106);"></path></g></g></g></g></g><g class="ldl-layer"><g class="ldl-ani"><g><g class="ldl-layer"><g class="ldl-ani" style=" transform-box: view-box; transform-origin: 50px 50px; animation: spinLoadingIcon .916667s infinite;"><path stroke-miterlimit="10" stroke-width="6" stroke="#e0e0e0" fill="none" d="M50 10c-22.091 0-40 17.909-40 40 0 .561.012 1.119.034 1.674" style="stroke-width: 6; stroke: rgb(224, 224, 224);"></path></g></g><g class="ldl-layer"><g class="ldl-ani" style=" transform-box: view-box; transform-origin: 50px 50px; animation: spinLoadingIcon 1s infinite;"><path stroke-miterlimit="10" stroke-linecap="round" stroke-width="6" stroke="#e15b64" fill="none" d="M10.034 51.674C10.912 72.989 28.47 90 50 90c22.091 0 40-17.909 40-40S72.091 10 50 10" style="stroke-width: 6; stroke: rgb(225, 91, 100);"></path></g></g></g></g></g></g></g><style>@keyframes spinLoadingIcon{to{transform:rotate(360deg)}}</style></svg></g><g><path fill="#FFFFFF" d="M171.372,195l1.772-10.047c0.086-0.528,0.58-0.938,1.109-0.938c0.511,0,0.869,0.409,0.767,0.938 l-1.603,9.108h4.623c0.528,0,0.869,0.427,0.784,0.938c-0.103,0.529-0.597,0.955-1.126,0.955h-5.528c0,0,0-0.017-0.017-0.017 c0,0,0,0.017-0.018,0.017C171.628,195.955,171.27,195.529,171.372,195z"/><path fill="#FFFFFF" d="M181.815,194.231c-0.835-1.073-1.193-2.558-0.903-4.195c0.29-1.619,1.177-3.122,2.388-4.195 c1.212-1.092,2.764-1.773,4.349-1.773c1.569,0,2.884,0.682,3.72,1.773c0.817,1.075,1.176,2.576,0.886,4.195 c-0.271,1.638-1.159,3.122-2.371,4.195c-1.212,1.094-2.763,1.775-4.349,1.775C183.948,196.007,182.635,195.325,181.815,194.231z M182.806,190.036c-0.205,1.143,0.051,2.167,0.613,2.916c0.563,0.734,1.416,1.16,2.456,1.18c1.024-0.019,2.03-0.445,2.865-1.18 c0.819-0.75,1.434-1.773,1.638-2.916c0.206-1.144-0.05-2.167-0.613-2.899c-0.564-0.733-1.433-1.177-2.457-1.177 s-2.047,0.443-2.866,1.177C183.624,187.869,183.01,188.892,182.806,190.036z"/><path fill="#FFFFFF" d="M196.049,195.375c-0.203,0.376-0.597,0.613-0.987,0.613c-0.103,0-0.223-0.017-0.327-0.05 c-0.441-0.188-0.597-0.733-0.323-1.229l5.543-10.048c0.206-0.392,0.615-0.614,1.007-0.614c0.391,0,0.716,0.223,0.802,0.614 l1.996,10.048c0.103,0.495-0.239,1.041-0.769,1.229c-0.12,0.033-0.222,0.05-0.342,0.05c-0.375,0-0.699-0.237-0.767-0.613 l-0.441-2.2h-4.163L196.049,195.375z M201.066,191.298l-0.735-3.668l-2.014,3.668H201.066z"/><path fill="#FFFFFF" d="M206.104,195.035l1.757-10.048c0.103-0.528,0.597-0.938,1.125-0.938H211c3.292,0,5.491,2.66,4.911,5.969 c-0.58,3.293-3.735,5.973-7.027,5.973h-1.995c-0.018,0-0.018,0-0.018,0C206.359,195.988,206.001,195.564,206.104,195.035z M210.657,185.924h-1.075l-1.432,8.17h1.074c2.254,0,4.401-1.824,4.793-4.076C214.41,187.749,212.909,185.942,210.657,185.924z" /><path fill="#FFFFFF" d="M219.262,196.007c-0.529,0-0.87-0.427-0.784-0.937l1.772-10.065c0.103-0.511,0.598-0.938,1.108-0.938 c0.529,0,0.87,0.427,0.784,0.938l-1.773,10.065C220.285,195.578,219.771,196.007,219.262,196.007z"/><path fill="#FFFFFF" d="M225.338,185.038c0.051-0.307,0.238-0.613,0.545-0.802c0.462-0.307,1.041-0.221,1.264,0.206l4.196,7.709 l1.244-7.111c0.101-0.512,0.597-0.938,1.109-0.938c0.527,0,0.869,0.427,0.784,0.938l-1.774,10.013 c-0.086,0.528-0.578,0.938-1.107,0.938c-0.271,0-0.511-0.12-0.648-0.323c-0.017-0.036-0.05-0.07-0.068-0.12l-4.161-7.643 l-1.263,7.147c-0.086,0.528-0.58,0.938-1.108,0.938c-0.511,0-0.87-0.41-0.769-0.938L225.338,185.038z"/><path fill="#FFFFFF" d="M237.012,190.003c0.597-3.328,3.805-5.972,7.165-5.972c1.433,0,2.678,0.477,3.564,1.297 c0.358,0.308,0.326,0.902-0.067,1.312c-0.392,0.41-0.988,0.495-1.348,0.17c-0.631-0.562-1.484-0.903-2.489-0.903 c-1.178,0-2.303,0.461-3.207,1.212c-0.887,0.749-1.537,1.756-1.724,2.884c-0.205,1.108,0.087,2.131,0.717,2.864 c0.631,0.75,1.604,1.213,2.781,1.213c0.835,0,1.652-0.239,2.387-0.649l0.41-2.267h-2.372c-0.51,0-0.868-0.427-0.768-0.939 c0.087-0.528,0.581-0.938,1.11-0.938h3.275c0,0,0,0,0.017,0c0.528,0,0.869,0.41,0.785,0.938l-0.65,3.686 c-0.017,0.085-0.049,0.17-0.083,0.255c-0.019,0.035-0.035,0.068-0.051,0.103c0,0,0,0-0.017,0.018 c-0.088,0.152-0.208,0.29-0.359,0.392c-1.177,0.803-2.592,1.297-4.01,1.297c-0.019,0-0.019,0-0.019,0 C238.718,195.955,236.432,193.311,237.012,190.003z"/><path fill="#FFFFFF" d="M251.093,195.988c-0.445,0-0.854-0.41-0.854-0.854c0-0.46,0.409-0.833,0.854-0.833 c0.459,0,0.835,0.373,0.835,0.833C251.929,195.578,251.553,195.988,251.093,195.988z"/><path fill="#FFFFFF" d="M255.018,195.988c-0.444,0-0.854-0.41-0.854-0.854c0-0.46,0.409-0.833,0.854-0.833 c0.461,0,0.836,0.373,0.836,0.833C255.854,195.578,255.479,195.988,255.018,195.988z"/><path fill="#FFFFFF" d="M258.943,195.988c-0.445,0-0.854-0.41-0.854-0.854c0-0.46,0.409-0.833,0.854-0.833 c0.461,0,0.836,0.373,0.836,0.833C259.78,195.578,259.404,195.988,258.943,195.988z"/></g></g></g></g><g ><g><polygon fill="#263238" points="430.875,351.456 378.38,351.7 325.885,351.788 220.895,351.956 115.905,351.788 63.41,351.7 10.915,351.456 63.41,351.211 115.905,351.124 220.895,350.958 325.885,351.124 378.38,351.213"/></g></g><g ><g><g><g><path fill="#EB9481" d="M524.792,370.688c-0.896-2.928-49.169-70.566-52.642-71.984c-1.312-0.543-3.868-2.59-16.047,5.563 l-25.685-22.53l-14.578,47.648l63.556,27.082c0,0,30.064,17.631,34.039,18.775C517.398,376.375,525.688,373.616,524.792,370.688 z"/><path fill="#EB9481" d="M524.792,370.688c-0.896-2.928-49.169-70.566-52.642-71.984c-1.312-0.543-3.868-2.59-16.047,5.563 l-25.685-22.53l-14.578,47.648l63.556,27.082c0,0,30.064,17.631,34.039,18.775C517.398,376.375,525.688,373.616,524.792,370.688 z"/><g><path fill="#FFC727" d="M453.506,345.438l25.887,11.035c0,0,30.065,17.623,34.039,18.771 c3.969,1.129,12.254-1.629,11.355-4.551c-0.891-2.934-49.166-70.57-52.631-71.988c-1.319-0.547-3.871-2.588-16.051,5.559 l-2.711-2.383L453.506,345.438z"/><g><path fill="#263238" d="M459.191,345.616c-0.657-0.979-1.456-1.803-2.291-2.59c-0.849-0.771-1.731-1.504-2.76-2.082 c0.655,0.979,1.455,1.805,2.29,2.59C457.28,344.305,458.165,345.038,459.191,345.616z"/><path fill="#263238" d="M459.246,341.102c-0.656-0.98-1.456-1.805-2.29-2.592c-0.849-0.77-1.731-1.504-2.759-2.082 c0.654,0.979,1.453,1.805,2.289,2.59C457.335,339.788,458.219,340.522,459.246,341.102z"/><path fill="#263238" d="M459.301,336.584c-0.656-0.979-1.456-1.803-2.29-2.59c-0.849-0.771-1.731-1.506-2.76-2.084 c0.656,0.98,1.455,1.805,2.29,2.592C457.391,335.272,458.275,336.006,459.301,336.584z"/><path fill="#263238" d="M459.355,332.069c-0.655-0.98-1.455-1.805-2.289-2.59c-0.849-0.771-1.731-1.506-2.76-2.084 c0.655,0.979,1.455,1.805,2.29,2.592C457.446,330.756,458.33,331.489,459.355,332.069z"/><path fill="#263238" d="M459.412,327.553c-0.657-0.979-1.456-1.803-2.29-2.59c-0.849-0.771-1.732-1.506-2.76-2.084 c0.655,0.98,1.454,1.805,2.29,2.59C457.501,326.241,458.385,326.973,459.412,327.553z"/><path fill="#263238" d="M459.466,323.038c-0.655-0.98-1.456-1.805-2.29-2.592c-0.848-0.771-1.73-1.504-2.759-2.082 c0.655,0.979,1.455,1.805,2.29,2.59C457.556,321.725,458.439,322.458,459.466,323.038z"/><path fill="#263238" d="M459.521,318.522c-0.656-0.98-1.455-1.805-2.289-2.592c-0.849-0.77-1.731-1.504-2.761-2.082 c0.656,0.979,1.455,1.805,2.29,2.592C457.612,317.209,458.496,317.942,459.521,318.522z"/><path fill="#263238" d="M459.577,314.004c-0.656-0.979-1.455-1.803-2.289-2.59c-0.849-0.771-1.732-1.504-2.76-2.082 c0.655,0.979,1.454,1.803,2.29,2.59C457.667,312.692,458.551,313.426,459.577,314.004z"/><path fill="#263238" d="M459.632,309.489c-0.657-0.979-1.456-1.803-2.29-2.59c-0.848-0.771-1.73-1.506-2.759-2.083 c0.655,0.979,1.454,1.804,2.289,2.591C457.722,308.176,458.605,308.911,459.632,309.489z"/></g></g></g><g><path fill="#37474F" d="M331.059,277.443c7.797,21.437,116.062,70.872,116.062,70.872l18.334-56.93l-49.709-21.188 l105.309-15.445l-53.738-20.055c0,0-10.194,4.312-17.723,2.139c-3.334-0.965-74.281-10.787-88.078-7.353 C331.051,237.068,323.904,257.777,331.059,277.443z"/><path fill="#263238" d="M390.973,257.204c2.113,0.744,4.117,1.984,6.116,2.988c2.113,1.062,4.241,2.098,6.354,3.162 c0.021,0.012,0.041,0.021,0.062,0.031c-0.471-0.385-0.937-0.771-1.414-1.146c-1.634-1.287-3.133-2.709-4.879-3.852 c-0.106-0.069-0.001-0.234,0.106-0.166c1.768,1.117,3.653,2.076,5.319,3.346c0.785,0.6,1.552,1.215,2.3,1.857 c0.41,0.352,0.824,0.701,1.22,1.07c0.18,0.17,0.387,0.342,0.554,0.535c0.96,0.504,1.915,1.016,2.86,1.547 c2.097,1.182,4.098,2.532,6.202,3.691c0.112,0.062,0.006,0.225-0.105,0.167c-2.068-1.046-4.234-1.903-6.318-2.929 c-2.119-1.043-4.195-2.164-6.263-3.305c-2.017-1.115-4.019-2.258-6.033-3.375c-2.03-1.125-4.271-2.117-6.145-3.49 C390.845,257.29,390.891,257.174,390.973,257.204z"/><path fill="#263238" d="M441.158,334.653c0.461-1.619,0.938-3.232,1.421-4.846c0.967-3.225,1.926-6.451,2.913-9.672 c1.963-6.398,3.926-12.803,6.031-19.159c1.189-3.595,2.373-7.205,3.72-10.745c0.077-0.203,0.378-0.115,0.325,0.098 c-1.635,6.524-3.67,12.971-5.689,19.385c-2.012,6.387-4.076,12.756-6.169,19.117c-0.587,1.781-1.168,3.564-1.778,5.338 c-0.623,1.811-1.333,3.596-1.943,5.406c-0.029,0.088-0.164,0.049-0.139-0.041C440.32,337.918,440.697,336.272,441.158,334.653z" /></g></g><g><g><path fill="#EB9481" d="M498.65,184.381c-10.027,19.576-26.211,41.99-31.449,44.967c-6.626,3.766-44.294,4.218-46.104,3.962 c-4.472-0.662-5.269-34.252-0.457-33.749c7.325,0.768,33.373,5.865,35.313,4.675c2.016-1.249,16.317-12.183,31.378-24.813 C497.729,170.689,504.874,172.234,498.65,184.381z"/><g><path fill="#EB9481" d="M425.025,232.502c-0.586,0.133-8.898,1.977-13.793,2.146c-3.651,0.126-14.172,0.206-14.711-3.801 c-0.369-2.731,5.812-3.509,10.17-4.153c2.297-0.34,5.406-1.867,5.133-3.357c-0.48-2.604-6.421-1.612-10.454-0.459 c-7.8,2.231-18.658,7.055-21.94,2.554c-1.238-1.701,1.187-3.615,4.442-5.269c-5.017,1.619-10.195,2.678-11.646,0.842 c-0.834-1.047-0.609-2.139,0.276-3.225c-1.446,0.098-2.604-0.287-3.209-1.365c-1.035-1.828,0.2-3.828,2.304-5.666 c-0.479-0.178-0.859-0.541-1.064-1.164c-1.831-5.295,16.379-14.566,21.846-14.482c16.085,0.229,31.903,4.943,31.903,4.943 C429.037,206.315,425.041,232.495,425.025,232.502z"/><g><path fill="#263238" d="M406.246,212.893c-3.714-0.344-7.57,0.104-11.105,1.336c-4.487,1.566-7.791,3.893-11.774,6.068 c-0.105,0.058-0.021,0.223,0.086,0.164c1.897-1.033,9.622-4.77,11.575-5.567c3.58-1.466,7.347-2.177,11.218-1.937 C406.286,212.959,406.288,212.896,406.246,212.893z"/><path fill="#263238" d="M405.046,205.739c-4.263,0.082-8.628,0.151-12.807,1.102c-4.572,1.039-8.593,3.605-12.528,6.055 c-2.364,1.471-4.697,2.99-6.991,4.568c-0.096,0.066-0.016,0.229,0.086,0.166c4.009-2.547,8.095-4.977,12.251-7.271 c3.91-2.16,8.01-3.533,12.45-4.052c2.502-0.294,5.021-0.394,7.536-0.492C405.091,205.812,405.095,205.739,405.046,205.739z"/><path fill="#263238" d="M402.21,199.032c-4.075-0.185-7.628-0.359-11.584,0.85c-5.237,1.601-10.793,5.123-12.746,6.375 c-2.158,1.385-4.268,2.838-6.354,4.326c-0.086,0.061,0.018,0.209,0.104,0.15c4.724-3.211,9.681-6.143,14.779-8.717 c2.438-1.229,4.991-2.191,7.696-2.626c2.673-0.429,5.404-0.363,8.104-0.331C402.227,199.06,402.229,199.032,402.21,199.032z" /></g></g></g><g><path fill="#FFC727" d="M484.191,213.034l-11.832-25.103c0,0,7.164-5.953,17.392-12.365c10.228-6.412,15.231-2.907,9.132,12.177 C492.783,202.827,484.191,213.034,484.191,213.034z"/><path fill="#FFFFFF" d="M479.523,183.062c0,1.101-0.891,1.989-1.99,1.989c-0.399,0-0.771-0.109-1.08-0.319 c0.87-0.659,1.87-1.399,2.99-2.21C479.493,182.692,479.523,182.874,479.523,183.062z M496.819,181.068 c-1.101,0-1.992,0.892-1.992,1.992s0.893,1.991,1.992,1.991c1.101,0,1.991-0.893,1.991-1.991 C498.811,181.959,497.919,181.068,496.819,181.068z M487.177,195.692c-1.101,0-1.991,0.893-1.991,1.992s0.892,1.992,1.991,1.992 c1.101,0,1.992-0.893,1.992-1.992S488.277,195.692,487.177,195.692z"/><path fill="#263238" d="M476.028,186.2c1.089,1.76,1.92,3.694,2.855,5.536c0.895,1.761,1.789,3.521,2.625,5.31 c1.736,3.713,3.392,7.451,4.97,11.232c0.026,0.064-0.08,0.121-0.112,0.057c-1.847-3.606-3.645-7.231-5.396-10.887 c-0.87-1.816-1.694-3.656-2.516-5.496c-0.844-1.891-1.837-3.746-2.539-5.695C475.891,186.188,475.99,186.137,476.028,186.2z"/><path opacity="0.1" d="M498.883,187.743c-6.101,15.08-14.689,25.291-14.689,25.291l-9.891-20.98 l24.78-19.32C502.203,173.753,502.562,178.643,498.883,187.743z"/></g></g><g><path fill="#FFC727" d="M542.718,264.952c-2.53,0.959-76.789-16.525-76.789-16.525l7.359-25.848c0,0-4.679-7.955-3.094-15.916 c2.116-10.635,20.684-28.88,22.157-29.973c5.929-4.374,11.315-5.226,16.531-2.783 C530.614,184.083,542.718,264.952,542.718,264.952z"/><path fill="#FFFFFF" d="M498.811,183.061c0,1.1-0.892,1.992-1.991,1.992c-1.101,0-1.992-0.893-1.992-1.992 c0-1.102,0.893-1.992,1.992-1.992C497.919,181.068,498.811,181.959,498.811,183.061z M518.083,182.874c0-0.012,0-0.012,0-0.012 c-0.37-0.55-0.74-1.09-1.12-1.6c-0.261-0.12-0.551-0.189-0.859-0.189c-1.101,0-1.99,0.891-1.99,1.989 c0,1.101,0.891,1.989,1.99,1.989c1.099,0,1.989-0.889,1.989-1.989C518.093,182.993,518.093,182.933,518.083,182.874z M477.535,210.401c-1.1,0-1.992,0.893-1.992,1.992c0,1.102,0.893,1.992,1.992,1.992c1.101,0,1.992-0.893,1.992-1.992 S478.635,210.401,477.535,210.401z M496.819,210.401c-1.101,0-1.992,0.893-1.992,1.992c0,1.102,0.893,1.992,1.992,1.992 c1.101,0,1.991-0.893,1.991-1.992S497.919,210.401,496.819,210.401z M516.104,210.401c-1.101,0-1.991,0.893-1.991,1.992 c0,1.102,0.892,1.992,1.991,1.992c1.101,0,1.991-0.893,1.991-1.992S517.204,210.401,516.104,210.401z M487.177,195.692 c-1.101,0-1.991,0.893-1.991,1.992s0.892,1.992,1.991,1.992c1.101,0,1.992-0.893,1.992-1.992S488.277,195.692,487.177,195.692z M506.461,195.692c-1.102,0-1.992,0.893-1.992,1.992s0.893,1.992,1.992,1.992s1.992-0.893,1.992-1.992 S507.561,195.692,506.461,195.692z M524.874,195.893c-0.66,0.32-1.12,1-1.12,1.79c0,1.101,0.891,1.989,1.989,1.989 c0.221,0,0.431-0.039,0.631-0.1C525.883,198.323,525.383,197.092,524.874,195.893z M477.535,239.735 c-1.1,0-1.992,0.893-1.992,1.992s0.893,1.992,1.992,1.992c1.101,0,1.992-0.893,1.992-1.992S478.635,239.735,477.535,239.735z M496.819,239.735c-1.101,0-1.992,0.893-1.992,1.992s0.893,1.992,1.992,1.992c1.101,0,1.991-0.893,1.991-1.992 S497.919,239.735,496.819,239.735z M516.104,239.735c-1.101,0-1.991,0.893-1.991,1.992s0.892,1.992,1.991,1.992 c1.101,0,1.991-0.893,1.991-1.992S517.204,239.735,516.104,239.735z M535.388,239.735c-1.101,0-1.991,0.893-1.991,1.992 s0.892,1.992,1.991,1.992c1.101,0,1.992-0.893,1.992-1.992S536.488,239.735,535.388,239.735z M487.177,225.026 c-1.101,0-1.991,0.893-1.991,1.992s0.892,1.992,1.991,1.992c1.101,0,1.992-0.893,1.992-1.992S488.277,225.026,487.177,225.026z M506.461,225.026c-1.102,0-1.992,0.893-1.992,1.992s0.893,1.992,1.992,1.992s1.992-0.893,1.992-1.992 C508.454,225.918,507.561,225.026,506.461,225.026z M525.746,225.026c-1.102,0-1.992,0.893-1.992,1.992s0.893,1.992,1.992,1.992 s1.992-0.893,1.992-1.992S526.846,225.026,525.746,225.026z M506.463,254.362c-1.101,0-1.99,0.891-1.99,1.99 c0,0.359,0.101,0.71,0.271,1c0.95,0.21,1.899,0.432,2.851,0.641c0.521-0.359,0.859-0.959,0.859-1.641 C508.453,255.252,507.562,254.362,506.463,254.362z M525.746,254.359c-1.102,0-1.992,0.892-1.992,1.992s0.893,1.991,1.992,1.991 s1.992-0.891,1.992-1.991S526.846,254.359,525.746,254.359z"/><g><g><path fill="#263238" d="M479.256,220.969c2.598-0.158,5.27,0.572,7.855,1.59c2.604,1.023,8.453,4.374,9.92,5.197 c0.037,0.021,0.029,0.111-0.01,0.099c-2.613-0.886-2.978-1.097-5.559-2.347c-2.577-1.246-5.16-2.354-7.765-3.278 c-1.47-0.522-2.948-0.79-4.427-0.996C479.177,221.219,479.156,220.976,479.256,220.969z"/><path fill="#263238" d="M474.873,223.637c2.655-0.67,5.453-0.357,8.163,0.576c0.032,0.013,0.032,0.104-0.001,0.102 c-1.358-0.167-2.711-0.329-4.068-0.413c-1.361-0.085-2.724-0.094-4.085-0.14C474.833,223.762,474.828,223.647,474.873,223.637z"/></g></g></g><g><g><g><g><rect x="401.257" y="231.252" fill="#C7C7C7" width="76.458" height="3.424"/></g><g><polygon fill="#A6A6A6" points="401.257,231.252 401.257,234.676 447.117,234.676 444.497,231.252"/></g></g><g><polygon fill="#A6A6A6" points="435.775,234.678 361.258,234.678 355.054,184.068 429.571,184.068"/><polygon fill="#C7C7C7" points="431.874,234.678 357.357,234.678 351.153,184.068 425.67,184.068"/><path fill="#FFFFFF" d="M396.049,209.374c0.044,2.504-1.951,4.535-4.456,4.535s-4.571-2.031-4.614-4.535 c-0.045-2.506,1.95-4.535,4.455-4.535C393.939,204.838,396.005,206.868,396.049,209.374z"/></g></g></g><g><g><g><path fill="#EB9481" d="M518.453,184.068c8.672,14.446,26.226,63.524,16.036,70.411c-10.263,6.938-56.734-12.798-69.235-21.643 c-3.719-2.631,16.047-25.234,20.911-25.002c4.05,0.195,21.854,12.469,22.644,11.404c0.891-1.203-1.142-11.227-2.975-29.681 C503.719,168.28,513.464,175.759,518.453,184.068z"/><g><g><path fill="#EB9481" d="M467.441,196.202c-9.611-3.074-12.553-2.388-19.286-9.289c-4.419-4.529-9.207-3.652-7.329,2.655 c3.07,10.317,14.639,16.888,19.306,18.011L467.441,196.202z"/><g><path fill="#EB9481" d="M491.963,210.204c0,0-10.004-8.058-19.923-12.347c-6.859-2.966-22.502-7.755-40.53,5.38 c-4.275,3.115-8.16,10.588,0.672,8.035c6.273-1.812,9.704-4.857,13.547-5.247c0,0-3.812,10.091-0.524,14.253 c1.47,1.859,5.6,6.844,9.368,10.264c0,0,0.966-0.621,2.078-1.58c0,0,3.438,3.598,10.982,4.174L491.963,210.204z"/></g><g><path fill="#EB9481" d="M465.042,196.073c-3.729,1.192-11.595,3.854-17.271,8.268c-6.306,4.904-17.129,16.05-13.461,20.666 c2.688,3.386,7.194-0.506,7.194-0.506s-3.503,5.549-0.403,8.076c2.822,2.303,6.129-0.918,6.129-0.918 s-1.547,3.731,1.601,5.426c3.785,2.037,6.404-6.117,12.021-7.365C462.112,229.438,465.042,196.073,465.042,196.073z"/><g><g><path fill="#263238" d="M454.062,210.139c-3.324,1.697-9.887,7.488-12.584,14.197c-0.062,0.152,0.021,0.279,0.105,0.152 c4.539-6.755,10.049-12.145,12.523-14.291C454.141,210.168,454.1,210.12,454.062,210.139z"/></g><g><path fill="#263238" d="M458.827,216.647c-2.718,1.76-9.214,8.031-11.714,14.922c-0.058,0.154,0.035,0.275,0.113,0.146 c4.451-7.254,9.308-12.723,11.649-15.012C458.908,216.672,458.862,216.624,458.827,216.647z"/></g></g></g></g><path fill="#263238" d="M445.737,205.959c-3.373,0.392-5.732,1.604-8.768,3.018c-1.501,0.699-3.017,1.376-4.587,1.904 c-1.431,0.48-3.543,1.217-4.744-0.131c-0.669-0.752-0.464-1.871-0.139-2.726c0.365-0.96,1.664-2.625,2.396-3.349 c0.037-0.035-0.025-0.102-0.063-0.064c-0.67,0.639-2.027,2.113-2.491,2.918c-0.42,0.729-0.8,1.594-0.723,2.455 c0.166,1.852,2.213,2.445,3.773,2.215c0.936-0.14,1.854-0.465,2.738-0.787c0.854-0.312,1.694-0.664,2.525-1.039 c1.703-0.767,3.361-1.631,5.057-2.418c1.861-0.863,3.107-1.229,5.055-1.879C445.833,206.053,445.803,205.952,445.737,205.959z"/><path fill="#263238" d="M437.064,216.09c1.146-1.686,6.961-8.53,8.726-10.043c0.045-0.039-0.006-0.106-0.056-0.073 c-2.911,1.938-8.021,7.543-9.308,9.397c-1.271,1.836-2.776,4.199-3.161,6.424c-0.58,3.354,1.534,4.373,2.328,4.679 c0.947,0.364,1.976,0.331,2.936,0.026c1.067-0.34,2.199-1.229,3.007-1.983c0.043-0.04-0.008-0.112-0.056-0.075 c-1.391,1.12-3.547,2.092-5.327,1.536c-0.772-0.239-1.511-0.737-1.88-1.478c-0.436-0.869-0.306-1.89-0.069-2.793 C434.737,219.659,435.886,217.823,437.064,216.09z"/></g></g><g><path fill="#263238" d="M508.807,219.239c1.727,0.699,3.316,1.641,4.854,2.655c1.523,1.034,2.996,2.157,4.281,3.505 c-1.644-0.873-3.172-1.871-4.699-2.882C511.727,221.487,510.225,220.441,508.807,219.239z"/></g></g><g><path fill="#FFC727" d="M532.821,210.295l-27.513-3.631c0,0-1.13-9.246-0.99-21.315c0.141-12.069,5.797-14.383,15.182-1.093 C528.885,197.547,532.821,210.295,532.821,210.295z"/><path fill="#FFFFFF" d="M518.095,183.061c0,1.1-0.892,1.992-1.991,1.992c-1.101,0-1.992-0.893-1.992-1.992 c0-1.102,0.893-1.992,1.992-1.992C517.204,181.068,518.095,181.959,518.095,183.061z M506.463,195.692 c-0.891,0-1.65,0.592-1.9,1.4c0,0-0.01,0.01,0,0.02c0.021,0.461,0.051,0.91,0.07,1.352c0,0,0,0,0.01,0.01 c0.301,0.699,1,1.199,1.82,1.199c1.1,0,1.989-0.889,1.989-1.989C508.453,196.583,507.562,195.692,506.463,195.692z M527.703,198.034c0,0.01,0,0.01,0,0.01c-0.17,0.93-0.979,1.629-1.96,1.629c-1.101,0-1.989-0.889-1.989-1.989 s0.891-1.99,1.989-1.99c0.301,0,0.591,0.069,0.851,0.19L527.703,198.034z"/><path fill="#263238" d="M505.836,202.642c2.068,0.036,4.146,0.385,6.202,0.595c1.964,0.199,3.93,0.4,5.886,0.665 c4.062,0.548,8.1,1.179,12.135,1.897c0.069,0.013,0.06,0.133-0.014,0.125c-4.033-0.398-8.053-0.85-12.075-1.354 c-1.997-0.251-3.991-0.553-5.981-0.857c-2.047-0.312-4.146-0.48-6.164-0.945C505.754,202.75,505.763,202.641,505.836,202.642z" /><path fill="#263238" d="M504.67,203.872c-0.109-1.008-0.188-2.015-0.25-3.025c-0.013-0.207-0.023-0.416-0.037-0.624 c-0.335-1.22-0.664-2.445-0.869-3.692c-0.007-0.043,0.054-0.064,0.067-0.021c0.305,0.923,0.536,1.867,0.749,2.816 c-0.084-1.547-0.135-3.099-0.062-4.643c0.002-0.051,0.069-0.051,0.076-0.002c0.26,2.01,0.377,4.039,0.562,6.057 c0.09,0.977,0.419,5.795,0.475,5.809c0,0,2.29,0.375,2.43,0.447c0.151,0.08,0.069,0.193,0.006,0.188 c-0.051-0.005-2.846-0.368-2.846-0.368C504.958,206.78,504.764,204.73,504.67,203.872z"/></g></g><g><g><g><path fill="#EB9481" d="M234.87,338.825c2.615,1.594,83.635,20.07,87.17,18.822c1.343-0.467,4.612-0.637,8.296-14.818 c0.796-3.064,52.496-27.779,52.496-27.779l-53.628-24.02l-50.959,28.262c0,0-34.185,6.799-37.914,8.584 C236.617,329.665,232.255,337.233,234.87,338.825z"/><path fill="#FFC727" d="M234.87,338.819c2.621,1.602,83.629,20.08,87.175,18.83c1.336-0.465,4.61-0.637,8.288-14.824 c0.226-0.84,4.613-3.195,10.89-6.184l-53.158-22.811l-9.82,5.453c0,0-34.182,6.811-37.914,8.586 C236.622,329.67,232.262,337.233,234.87,338.819z"/><g><path fill="#263238" d="M337.354,336.678c-1.149,0.258-2.209,0.703-3.244,1.195c-1.026,0.512-2.03,1.068-2.94,1.816 c1.149-0.256,2.209-0.701,3.244-1.195C335.438,337.983,336.441,337.424,337.354,336.678z"/><path fill="#263238" d="M333.165,334.991c-1.149,0.256-2.209,0.703-3.244,1.195c-1.026,0.51-2.03,1.066-2.94,1.814 c1.149-0.256,2.209-0.701,3.244-1.195C331.249,336.295,332.252,335.737,333.165,334.991z"/><path fill="#263238" d="M328.975,333.301c-1.148,0.26-2.207,0.703-3.244,1.195c-1.024,0.512-2.028,1.07-2.94,1.818 c1.151-0.258,2.209-0.703,3.244-1.197C327.061,334.606,328.064,334.049,328.975,333.301z"/><path fill="#263238" d="M324.787,331.614c-1.149,0.258-2.208,0.703-3.244,1.193c-1.025,0.512-2.03,1.07-2.941,1.818 c1.151-0.256,2.209-0.703,3.244-1.195C322.872,332.918,323.875,332.36,324.787,331.614z"/><path fill="#263238" d="M320.598,329.924c-1.149,0.258-2.209,0.705-3.244,1.197c-1.026,0.51-2.03,1.068-2.94,1.816 c1.149-0.258,2.209-0.703,3.244-1.195C318.682,331.231,319.686,330.672,320.598,329.924z"/><path fill="#263238" d="M316.409,328.237c-1.15,0.258-2.208,0.703-3.244,1.195c-1.026,0.512-2.029,1.068-2.94,1.816 c1.15-0.256,2.209-0.703,3.243-1.195C314.494,329.542,315.497,328.983,316.409,328.237z"/><path fill="#263238" d="M312.22,326.549c-1.149,0.258-2.208,0.703-3.243,1.195c-1.026,0.51-2.03,1.068-2.941,1.816 c1.15-0.258,2.209-0.701,3.244-1.195C310.305,327.854,311.309,327.295,312.22,326.549z"/><path fill="#263238" d="M308.032,324.86c-1.15,0.258-2.209,0.703-3.244,1.195c-1.027,0.512-2.031,1.068-2.941,1.816 c1.15-0.256,2.21-0.701,3.244-1.195C306.116,326.165,307.12,325.608,308.032,324.86z"/><path fill="#263238" d="M303.842,323.172c-1.15,0.258-2.208,0.703-3.244,1.195c-1.025,0.512-2.029,1.068-2.94,1.816 c1.149-0.256,2.209-0.701,3.243-1.195C301.926,324.479,302.93,323.918,303.842,323.172z"/><path fill="#263238" d="M299.653,321.485c-1.149,0.256-2.207,0.703-3.243,1.193c-1.026,0.512-2.03,1.068-2.941,1.816 c1.15-0.256,2.208-0.701,3.243-1.195C297.739,322.79,298.742,322.231,299.653,321.485z"/><path fill="#263238" d="M295.464,319.795c-1.149,0.258-2.208,0.703-3.244,1.195c-1.025,0.512-2.03,1.068-2.939,1.816 c1.149-0.256,2.209-0.701,3.243-1.195C293.549,321.102,294.553,320.542,295.464,319.795z"/><path fill="#263238" d="M291.275,318.108c-1.149,0.258-2.209,0.703-3.243,1.193c-1.027,0.512-2.03,1.07-2.941,1.818 c1.15-0.256,2.209-0.703,3.244-1.195C289.359,319.413,290.364,318.854,291.275,318.108z"/><path fill="#263238" d="M287.086,316.418c-1.148,0.258-2.208,0.705-3.244,1.197c-1.026,0.51-2.029,1.066-2.941,1.814 c1.151-0.256,2.209-0.701,3.244-1.193C285.171,317.725,286.175,317.167,287.086,316.418z"/></g></g><g><g><path fill="#37474F" d="M291.754,309.792l54.641,26.242l89.781-44.361c0,0,20.581,15.941,42.682,20.09 c15.037,2.822,46.515,2.703,58.705-14.764c10.271-14.707,4.198-32.01,4.198-32.01l-17.217-7.826 c0,0-40.515-28.979-65.871-31.619C419.984,221.517,291.754,309.792,291.754,309.792z"/><g><path fill="#263238" d="M509.424,247.141c2.456,1.47,4.842,3.047,7.27,4.562c2.387,1.489,4.841,2.875,7.125,4.524 c2.324,1.677,4.543,3.485,6.748,5.313c1.064,0.881,2.121,1.771,3.154,2.688c1.024,0.91,2.162,1.813,3.032,2.875 c0.081,0.099-0.062,0.231-0.162,0.177c-1.169-0.645-2.241-1.561-3.315-2.347c-1.161-0.849-2.311-1.714-3.467-2.569 c-2.229-1.648-4.498-3.246-6.724-4.902c-2.211-1.646-4.28-3.469-6.474-5.137c-2.347-1.787-4.805-3.433-7.229-5.109 C509.336,247.188,509.374,247.11,509.424,247.141z"/><g><path fill="#263238" d="M436.249,291.736c0.67,0.511,6.271,4.729,14.45,9.261l22.77-28.521L436.249,291.736z"/><path fill="#263238" d="M304.868,304.898c1.795,0.696,3.557,1.534,5.312,2.325c1.735,0.779,3.469,1.564,5.196,2.361 c3.534,1.629,7.039,3.322,10.549,5.004c7.042,3.375,22.787,12.219,26.695,14.184c0.072,0.035,0.017,0.164-0.06,0.131 c-7.062-3.135-29.177-14.223-36.164-17.725c-1.938-0.973-3.864-1.969-5.783-2.979c-1.943-1.021-3.938-2.012-5.819-3.14 C304.709,305.01,304.77,304.86,304.868,304.898z"/><path fill="#263238" d="M333.811,282.379c1.49-1.231,33.24-20.326,40.068-24.203c6.815-3.871,13.711-7.607,20.691-11.174 c6.965-3.56,14.031-6.942,21.219-10.033c7.104-3.053,14.32-5.934,21.695-8.271c0.945-0.299,1.889-0.6,2.826-0.922 c0.088-0.029,0.121,0.109,0.034,0.141c-3.73,1.281-7.374,2.832-11.025,4.322c-3.598,1.467-7.171,2.998-10.718,4.584 c-7.105,3.174-14.108,6.562-21.032,10.118c-6.908,3.548-13.723,7.274-20.468,11.123 c-6.789,3.872-13.526,7.833-20.228,11.856c-3.351,2.012-21.979,12.347-22.861,12.736 C333.846,282.729,333.648,282.514,333.811,282.379z"/><path fill="#263238" d="M383.643,317.333c3.344-1.834,6.758-3.557,10.146-5.312c3.391-1.758,6.812-3.459,10.233-5.152 c6.782-3.354,13.595-6.652,20.424-9.914c3.86-1.844,7.742-3.715,11.714-5.316c0.084-0.034,0.151,0.076,0.069,0.125 c-3.287,1.923-6.711,3.658-10.111,5.373c-3.41,1.72-6.831,3.42-10.251,5.121c-6.772,3.369-13.544,6.758-20.406,9.943 c-3.885,1.805-7.76,3.656-11.688,5.365C383.617,317.631,383.491,317.417,383.643,317.333z"/></g></g></g></g></g></g><g><g><g><path fill="#EB9481" d="M505.766,175.259c-0.011,1.36-4.283,11.144-10.252,12.203c-1.944,0.34-4.281-10.19-4.281-10.19 l-0.351-0.738l-4.895-10.334l12.532-12.598C498.52,153.601,505.761,174.683,505.766,175.259z"/><path fill="#263238" d="M485.986,166.194l4.896,10.335c2.839-1.866,8.737-6.771,10.094-15.724 c-1.236-3.657-2.278-6.697-2.426-7.145c-0.02-0.035-0.025-0.06-0.025-0.06l-1.608,1.504L485.986,166.194z"/></g><g><g><g><path fill="#263238" d="M502.262,159.135c0.354,0.515,0.611,1.091,0.743,1.708c0.589,2.788-0.899,5.448-2.633,7.494 c-1.862,2.182-4.356,4.086-5.427,6.821c-0.422,1.069-0.594,2.273-0.192,3.366c0.454,1.234,1.569,1.936,2.738,2.393 c1.229,0.486,2.794,0.793,3.545,2.006c0.628,1.002,0.47,2.308,0.032,3.354c-1.141,2.71-4.297,3.872-6.303,5.825 c-2.149,2.085-3.621,4.795-4.216,7.731c-0.556,2.742-0.239,5.631,0.8,8.219c0.506,1.262,1.194,2.478,2.035,3.539 c0.952,1.191,2.145,2.156,3.146,3.304c0.927,1.067,1.763,2.45,1.579,3.923c-0.141,1.139-2.787,4.434-7.807,5.684 c-0.359,0.09-0.174,0.73,0.223,0.771c0.764,0.089,1.524,0.135,2.288,0.127c6.357-0.025,12.446-3.141,16.123-8.344 c1.963-2.783,3.166-6.004,3.596-9.369c0.232-1.863,0.314-3.773,0.861-5.585c0.488-1.612,1.414-2.983,2.576-4.19 c2.217-2.287,4.952-4.016,6.769-6.687c1.614-2.388,2.544-5.192,2.829-8.052c0.58-5.985-1.624-11.888-5.758-16.211 C515.732,162.703,502.071,158.846,502.262,159.135z"/><path fill="#263238" d="M502.371,159.297c0.57,1.091,1.041,2.263,1.072,3.509c0.027,1.123-0.29,2.228-0.803,3.22 c-1.151,2.233-3.099,3.793-4.972,5.394c-1.761,1.504-3.546,3.188-4.146,5.506c-0.254,0.98-0.307,2.065,0.014,3.038 c0.361,1.104,1.188,1.873,2.197,2.404c1.838,0.967,4.464,1.602,4.977,3.953c0.495,2.271-1.549,4.209-3.015,5.619 c-3.579,3.445-8.729,7.381-8.003,13.01c0.369,2.85,1.937,5.641,3.588,7.938c1.191,1.656,2.716,3.744,2.139,5.904 c-0.021,0.08-0.14,0.031-0.119-0.047c0.577-2.295-1.313-4.121-2.604-5.766c-1.512-1.93-2.812-4.166-3.483-6.533 c-0.692-2.441-0.319-4.895,0.854-7.125c1.192-2.268,2.986-4.09,4.855-5.808c0.958-0.882,1.936-1.741,2.867-2.649 c0.839-0.82,1.688-1.723,2.1-2.842c0.439-1.193,0.073-2.354-0.883-3.167c-0.937-0.798-2.107-1.179-3.195-1.716 c-0.972-0.479-1.875-1.092-2.441-2.037c-0.455-0.756-0.668-1.631-0.689-2.509c-0.05-2.013,0.838-3.902,2.142-5.395 c1.85-2.117,4.346-3.558,6.157-5.708c0.925-1.099,1.713-2.396,1.938-3.833c0.236-1.512-0.298-2.854-0.83-4.238 C502.016,159.232,502.279,159.123,502.371,159.297z"/><path fill="#263238" d="M522.428,167.204c4.241,4.278,5.417,10.784,3.785,16.462c-0.914,3.185-2.669,6.031-4.925,8.438 c-2.104,2.247-4.564,4.253-6.155,6.928c-1.76,2.961-1.584,6.358-1.906,9.666c-0.262,2.68-1.085,5.248-2.44,7.575 c-2.603,4.466-7.017,7.847-12.025,9.128c-0.639,0.163-1.28,0.299-1.933,0.396c-0.082,0.014-0.102-0.112-0.021-0.127 c5.132-0.834,9.679-4.1,12.523-8.398c1.399-2.115,2.389-4.499,2.831-6.999c0.546-3.091,0.174-6.306,1.133-9.327 c0.898-2.834,3.013-5.031,5.088-7.064c2.268-2.219,4.489-4.42,5.915-7.301c2.646-5.347,2.565-11.933-0.832-16.941 c-3.79-5.588-10.46-7.806-16.771-9.089c-0.844-0.172-1.688-0.339-2.534-0.501c-0.097-0.019-0.082-0.168,0.017-0.153 C510.662,160.885,517.635,162.368,522.428,167.204z"/></g><path fill="#FFC727" d="M503.862,155.935c0.968,0.317,1.954,1.451,1.901,2.134c-0.052,0.682-3.679,4.572-5,4.543 c-1.322-0.028-1.629-2.448-1.629-2.448L503.862,155.935z"/></g><path fill="#EB9481" d="M465.871,154.592c2.808,19.871,15.025,20.433,19.311,19.823c3.89-0.554,17.062-2.934,16.322-22.989 c-0.74-20.055-10.866-25.031-19.828-24.235C472.713,127.988,463.062,134.721,465.871,154.592z"/><g><path fill="#263238" d="M468.299,152.442c0.448-0.152,0.838-0.367,1.268-0.562c0.482-0.221,0.892-0.348,1.182-0.821 c0.156-0.253,0.049-0.677-0.184-0.852c-0.541-0.407-1.199-0.283-1.793-0.04c-0.644,0.263-1.071,0.631-1.404,1.24 C467.045,151.998,467.707,152.643,468.299,152.442z"/><path fill="#263238" d="M481.671,149.78c-0.473,0.044-0.915,0.007-1.387,0.003c-0.531-0.004-0.955,0.047-1.414-0.266 c-0.245-0.167-0.321-0.599-0.181-0.853c0.326-0.592,0.979-0.748,1.619-0.769c0.695-0.023,1.236,0.138,1.789,0.559 C482.634,148.862,482.293,149.72,481.671,149.78z"/><g><g><path fill="#263238" d="M479.066,153.263c0.002-0.053,0.117,0.043,0.127,0.1c0.211,1.351,0.681,2.862,1.979,3.078 c0.041,0.007,0.049,0.074,0.003,0.077C479.654,156.589,479.051,154.577,479.066,153.263z"/><path fill="#263238" d="M480,151.634c2.129-0.573,3.117,3.726,1.146,4.256C479.206,156.413,478.216,152.114,480,151.634z"/></g><path fill="#263238" d="M480.896,151.667c0.433,0.157,0.898,0.501,1.361,0.442c0.535-0.069,0.827-0.61,1.07-1.122 c0.025-0.053,0.07-0.024,0.085,0.033c0.201,0.821,0.079,1.739-0.776,2.064c-0.779,0.297-1.524-0.299-1.921-1.08 C480.643,151.861,480.723,151.604,480.896,151.667z"/></g><g><g><path fill="#263238" d="M471.682,154.622c-0.021-0.048-0.089,0.087-0.074,0.142c0.358,1.319,0.548,2.891-0.551,3.618 c-0.033,0.022-0.015,0.089,0.029,0.071C472.504,157.897,472.232,155.814,471.682,154.622z"/><path fill="#263238" d="M470.165,153.517c-2.177,0.347-1.323,4.674,0.692,4.354 C472.842,157.554,471.989,153.226,470.165,153.517z"/></g><path fill="#263238" d="M469.318,153.979c-0.297,0.297-0.554,0.78-0.956,0.888c-0.468,0.125-0.909-0.274-1.302-0.664 c-0.039-0.04-0.066,0.003-0.058,0.061c0.142,0.832,0.584,1.639,1.41,1.641c0.753,0.002,1.146-0.812,1.18-1.675 C469.6,154.069,469.438,153.859,469.318,153.979z"/></g><path fill="#263238" d="M482.054,164.892c-0.229,0.396-0.426,0.908-0.893,1.082c-0.447,0.165-1.042,0.108-1.507,0.062 c-0.047-0.005-0.076,0.051-0.038,0.083c0.48,0.41,1.289,0.526,1.868,0.25c0.567-0.271,0.72-0.867,0.713-1.452 C482.197,164.835,482.087,164.835,482.054,164.892z"/><g><path fill="#263238" d="M475.223,161.182c0,0,0.158,2.054,0.363,2.994c0.02,0.089,0.256,0.081,0.579,0.03 c0.017,0.001,0.026,0.005,0.037-0.008c1.718-0.103,3.266-1.039,3.979-2.614c0.046-0.106-0.095-0.178-0.168-0.1 c-1.042,1.18-2.36,1.713-3.829,2.058c-0.123-0.245-0.152-3.526-0.305-3.506c-0.523,0.068-1.461,0.639-2.031,0.949 c-0.453-4.27-0.22-8.577-0.734-12.821c-0.021-0.151-0.244-0.149-0.26-0.007c-0.563,4.497-0.149,9.421,0.205,13.842 C473.1,162.551,474.881,161.423,475.223,161.182z"/></g><g><path fill="#263238" d="M476.628,163.753c0,0,1.081,0.989,2.335,1.179c0.462,0.071,0.939,0.042,1.401-0.183 c0.95-0.458,0.798-1.383,0.461-2.134c-0.274-0.618-0.683-1.117-0.683-1.117S478.946,163.151,476.628,163.753z"/><path fill="#FF98B9" d="M478.963,164.932c0.462,0.071,0.939,0.042,1.401-0.183c0.95-0.458,0.798-1.383,0.461-2.134 C479.773,162.935,478.852,163.87,478.963,164.932z"/></g></g><path fill="#263238" d="M502.246,152.72c-3.16,1.143-6.6-6.694-6.6-6.694s-6.557,1.832-11.325-7.004 c0,0,1.354,4.352,5.059,6.999c0,0-11.906,1.969-19.45-6.366c0,0,3.305,4.394,5.61,5.644c0,0-5.226-0.013-8.681-3.299 c0,0-0.48,6.146-1.613,8.12c0,0-6.604-20.898,14.23-23.398c0,0,13.395-3.413,20.178,4.716S502.246,152.72,502.246,152.72z"/><g><g><path fill="#EB9481" d="M498.561,153.399c0,0,2.858-7.089,5.979-6.207c3.12,0.882,1.954,10.471-1.019,12.432 c-2.972,1.961-4.841-0.754-4.841-0.754L498.561,153.399z"/><path fill="#263238" d="M504.137,149.933c0.053-0.017,0.078,0.054,0.037,0.083c-2.066,1.45-2.777,3.841-3.111,6.227 c0.482-1,1.3-1.675,2.615-1.129c0.068,0.028,0.033,0.135-0.033,0.136c-0.979,0.015-1.616,0.333-2.074,1.227 c-0.324,0.633-0.477,1.373-0.654,2.058c-0.061,0.229-0.453,0.205-0.429-0.048c0.001-0.02,0.004-0.038,0.006-0.058 C499.764,155.535,501.084,150.946,504.137,149.933z"/></g></g></g></g></g></g></g><g ><g><g><g><g><path fill="#455A64" d="M37.557,273.316c-4.57,0-13.814-3.595-12.255-6.612c1.523-2.951,6.314,0.856,6.513,0.973 c-0.134-0.221-3.221-6.248-0.473-7.293c2.813-1.072,5.527,1.859,6.215,5.203c0.688-3.344,3.402-6.275,6.215-5.203 c2.749,1.045-0.338,7.072-0.473,7.293c0.198-0.115,4.99-3.924,6.513-0.973C51.37,269.721,42.126,273.316,37.557,273.316z"/><g><path fill="#FFC727" d="M60.625,297.952c-0.21,2.404-0.589,4.967-1.162,7.494c-1.085,4.908-2.871,9.67-5.421,12.855 c0,0-7.388,3.117-16.533,3.117c-9.145,0-16.533-3.117-16.533-3.117c-5.451-6.805-7.395-20.811-6.618-28.012 c1.406-13.01,9.174-17.981,15.92-19.762c0-0.006,0-0.006,0.006-0.006c2.743-0.725,5.316-0.923,7.225-0.923 c6.612,0,21.173,2.388,23.151,20.688C60.887,292.385,60.881,295.051,60.625,297.952z"/><g><g><path fill="#FFFFFF" d="M37.987,269.601c0.186,4.317,0.291,8.64,0.372,12.959c0.082,4.319,0.1,8.642,0.12,12.963 c-0.025,4.321-0.044,8.644-0.17,12.966c-0.162,4.312-0.217,8.656-0.905,12.932l0.167-1.611l0.089-1.615 c0.07-1.076,0.072-2.158,0.105-3.236c0.055-2.158,0.088-4.316,0.095-6.477c0.033-4.318,0.057-8.639,0.036-12.957 l0.017-12.959C37.924,278.243,37.932,273.922,37.987,269.601z"/><path fill="#FFFFFF" d="M35.18,269.689c-0.655,2.058-1.144,4.157-1.546,6.272c-0.431,2.109-0.745,4.242-1.016,6.377 c-0.529,4.271-0.812,8.572-0.889,12.877l-0.035,3.229c-0.019,1.076,0.041,2.152,0.057,3.229 c0.015,2.154,0.191,4.303,0.293,6.453c0.04,1.078,0.148,2.15,0.243,3.223l0.286,3.221l0.733,6.43 c-0.355-2.127-0.702-4.26-1.018-6.395l-0.369-3.219c-0.122-1.072-0.257-2.146-0.324-3.225 c-0.173-2.154-0.333-4.311-0.376-6.472c-0.025-1.08-0.094-2.159-0.084-3.241l0.01-3.242 c0.125-4.322,0.402-8.646,1.029-12.926C32.825,278.01,33.668,273.741,35.18,269.689z"/><path fill="#FFFFFF" d="M31.435,270.226c-1.349,1.746-2.4,3.696-3.278,5.706c-0.212,0.506-0.45,1.002-0.646,1.514 l-0.553,1.551l-0.276,0.775c-0.081,0.262-0.149,0.527-0.224,0.791l-0.439,1.586c-1.091,4.251-1.528,8.648-1.495,13.031 l0.07,3.289l0.319,3.279l0.162,1.639c0.078,0.543,0.186,1.082,0.277,1.623l0.557,3.25c0.075,0.545,0.213,1.078,0.345,1.611 l0.392,1.602l0.781,3.209l1.952,6.316c-0.758-2.07-1.487-4.154-2.227-6.236l-0.865-3.197l-0.432-1.602 c-0.146-0.533-0.298-1.064-0.386-1.611l-0.616-3.26c-0.097-0.545-0.209-1.088-0.292-1.635l-0.177-1.649l-0.349-3.304 l-0.096-3.32c0.014-4.424,0.449-8.876,1.646-13.15l0.482-1.591c0.082-0.265,0.157-0.53,0.245-0.794l0.298-0.775l0.596-1.551 c0.212-0.511,0.459-1.008,0.691-1.51C28.869,273.829,29.982,271.892,31.435,270.226z"/><path fill="#FFFFFF" d="M28.681,270.971c-1.729,1.426-3.201,3.134-4.468,4.965c-1.282,1.822-2.354,3.79-3.188,5.852 c-1.681,4.115-2.53,8.562-2.51,13.008c-0.041,1.111,0.046,2.223,0.084,3.334c0.122,1.105,0.177,2.221,0.372,3.318 l0.254,1.648l0.336,1.639c0.107,0.547,0.224,1.092,0.372,1.629l0.406,1.623c0.284,1.08,0.636,2.139,0.951,3.211l1.123,3.158 l1.246,3.113l1.363,3.07c-2.09-3.963-3.865-8.109-5.115-12.432c-0.287-1.086-0.632-2.16-0.838-3.268l-0.353-1.65 l-0.27-1.667c-0.206-1.106-0.271-2.235-0.403-3.354c-0.048-1.125-0.146-2.25-0.111-3.379 c0.028-4.508,0.885-9.037,2.682-13.179c0.896-2.069,2.025-4.036,3.368-5.843c0.676-0.898,1.396-1.766,2.18-2.571 C26.94,272.389,27.77,271.625,28.681,270.971z"/></g><g><path fill="#FFFFFF" d="M40.622,269.719c1.512,4.052,2.355,8.32,3.005,12.591c0.627,4.28,0.904,8.604,1.029,12.925 l0.01,3.243c0.01,1.081-0.059,2.161-0.084,3.241c-0.043,2.162-0.203,4.316-0.376,6.473 c-0.067,1.078-0.202,2.148-0.324,3.223l-0.369,3.219c-0.314,2.137-0.662,4.27-1.017,6.396l0.733-6.43l0.286-3.221 c0.095-1.072,0.204-2.145,0.244-3.223c0.102-2.15,0.278-4.299,0.293-6.453c0.016-1.076,0.076-2.152,0.057-3.229 l-0.035-3.229c-0.076-4.305-0.36-8.604-0.889-12.877c-0.271-2.136-0.585-4.268-1.016-6.377 C41.766,273.877,41.276,271.776,40.622,269.719z"/><path fill="#FFFFFF" d="M44.367,270.256c1.453,1.666,2.565,3.604,3.536,5.586c0.231,0.502,0.479,1,0.691,1.511l0.596,1.552 l0.298,0.773c0.088,0.264,0.163,0.529,0.245,0.795l0.482,1.591c1.197,4.274,1.631,8.728,1.646,13.149l-0.096,3.322 l-0.349,3.303l-0.177,1.65c-0.083,0.547-0.195,1.088-0.292,1.633l-0.616,3.26c-0.088,0.547-0.241,1.078-0.386,1.613 l-0.432,1.6l-0.864,3.199c-0.74,2.082-1.468,4.166-2.227,6.234l1.952-6.316l0.781-3.207l0.392-1.604 c0.132-0.533,0.27-1.064,0.345-1.611l0.557-3.248c0.092-0.543,0.199-1.082,0.277-1.625l0.162-1.639l0.32-3.277l0.07-3.291 c0.033-4.381-0.403-8.779-1.495-13.031l-0.439-1.584c-0.075-0.264-0.142-0.53-0.224-0.793l-0.276-0.773l-0.553-1.552 c-0.196-0.513-0.434-1.007-0.646-1.515C46.768,273.952,45.716,272.002,44.367,270.256z"/><path fill="#FFFFFF" d="M47.121,271.002c0.911,0.652,1.741,1.416,2.519,2.227c0.783,0.807,1.503,1.672,2.179,2.57 c1.343,1.808,2.472,3.773,3.368,5.844c1.797,4.143,2.654,8.671,2.682,13.178c0.034,1.129-0.063,2.254-0.111,3.381 c-0.132,1.117-0.197,2.246-0.403,3.354l-0.27,1.667l-0.353,1.649c-0.206,1.108-0.551,2.182-0.838,3.268 c-1.25,4.322-3.025,8.471-5.115,12.432l1.362-3.07l1.246-3.113l1.124-3.158c0.314-1.07,0.667-2.131,0.95-3.209l0.406-1.623 c0.148-0.538,0.264-1.083,0.372-1.63l0.337-1.638l0.253-1.65c0.195-1.098,0.25-2.212,0.372-3.316 c0.039-1.113,0.125-2.224,0.084-3.334c0.021-4.447-0.829-8.894-2.51-13.008c-0.834-2.062-1.905-4.029-3.188-5.854 C50.322,274.135,48.85,272.426,47.121,271.002z"/></g></g></g><g><g><path fill="#FFFFFF" d="M36.445,285.043c0.706,0.92,1.32,1.895,1.908,2.883l-0.347,0.002 c0.325-0.584,0.667-1.156,1.022-1.723c0.179-0.281,0.361-0.562,0.549-0.84c0.195-0.271,0.38-0.552,0.587-0.816 c-0.123,0.312-0.269,0.615-0.405,0.922c-0.143,0.303-0.291,0.602-0.443,0.898c-0.307,0.594-0.626,1.18-0.962,1.756 l-0.176,0.304l-0.171-0.302C37.438,287.127,36.896,286.111,36.445,285.043z"/><path fill="#FFFFFF" d="M38.035,283.547c0.185,0.742,0.245,1.486,0.276,2.234c0.018,0.745,0.006,1.493-0.13,2.245 c-0.186-0.741-0.246-1.487-0.276-2.233C37.887,285.047,37.899,284.299,38.035,283.547z"/></g><g><path fill="#FFFFFF" d="M51.414,269.735c0.091,1.156,0.078,2.309,0.032,3.457l-0.292-0.188 c0.59-0.312,1.188-0.606,1.795-0.889c0.303-0.141,0.608-0.275,0.917-0.406c0.312-0.123,0.619-0.256,0.938-0.365 c-0.273,0.195-0.56,0.369-0.841,0.553c-0.285,0.176-0.572,0.348-0.862,0.514c-0.58,0.332-1.167,0.648-1.763,0.951 l-0.312,0.157l0.02-0.347C51.112,272.024,51.21,270.877,51.414,269.735z"/><path fill="#FFFFFF" d="M53.561,269.346c-0.249,0.723-0.604,1.381-0.983,2.023c-0.391,0.637-0.807,1.258-1.331,1.813 c0.248-0.724,0.603-1.382,0.983-2.024C52.621,270.523,53.038,269.902,53.561,269.346z"/></g><g><path fill="#FFFFFF" d="M47.83,280.075c0.595,0.996,1.094,2.033,1.563,3.084l-0.345-0.039 c0.391-0.541,0.796-1.07,1.214-1.592c0.21-0.261,0.423-0.518,0.643-0.771c0.225-0.25,0.44-0.504,0.677-0.744 c-0.159,0.297-0.337,0.58-0.508,0.867c-0.177,0.285-0.359,0.566-0.544,0.844c-0.373,0.555-0.758,1.1-1.158,1.634l-0.21,0.28 l-0.135-0.318C48.576,282.26,48.154,281.188,47.83,280.075z"/><path fill="#FFFFFF" d="M49.581,278.773c0.098,0.757,0.072,1.505,0.017,2.249c-0.068,0.744-0.166,1.484-0.388,2.217 c-0.099-0.758-0.073-1.505-0.017-2.25C49.261,280.245,49.359,279.504,49.581,278.773z"/></g><g><path fill="#FFFFFF" d="M41.335,314.219c0.706,0.92,1.321,1.895,1.908,2.883l-0.347,0.002 c0.325-0.582,0.667-1.156,1.022-1.723c0.178-0.283,0.36-0.562,0.549-0.84c0.194-0.271,0.38-0.551,0.587-0.816 c-0.123,0.312-0.269,0.613-0.405,0.922c-0.143,0.303-0.291,0.602-0.443,0.898c-0.307,0.594-0.626,1.18-0.962,1.756 l-0.176,0.303l-0.171-0.301C42.328,316.303,41.787,315.288,41.335,314.219z"/><path fill="#FFFFFF" d="M42.925,312.723c0.185,0.742,0.245,1.486,0.276,2.232c0.019,0.748,0.007,1.494-0.13,2.246 c-0.186-0.74-0.246-1.486-0.275-2.232C42.777,314.223,42.789,313.475,42.925,312.723z"/></g><g><path fill="#FFFFFF" d="M26.131,274.831c0.409,1.086,0.716,2.194,0.993,3.312l-0.333-0.1c0.48-0.463,0.973-0.914,1.477-1.354 c0.252-0.219,0.508-0.436,0.768-0.645c0.265-0.205,0.523-0.42,0.798-0.613c-0.208,0.266-0.435,0.512-0.654,0.766 c-0.224,0.248-0.453,0.492-0.685,0.732c-0.465,0.479-0.94,0.947-1.429,1.402l-0.256,0.24l-0.077-0.339 C26.479,277.114,26.254,275.984,26.131,274.831z"/><path fill="#FFFFFF" d="M28.085,273.859c-0.038,0.763-0.195,1.493-0.381,2.218c-0.198,0.721-0.426,1.432-0.774,2.112 c0.037-0.765,0.195-1.495,0.382-2.218C27.51,275.252,27.737,274.54,28.085,273.859z"/></g><g><path fill="#FFFFFF" d="M61.642,287.278c-0.042,1.159-0.187,2.303-0.363,3.438l-0.27-0.219 c0.622-0.242,1.25-0.469,1.884-0.679c0.317-0.104,0.636-0.204,0.958-0.299c0.324-0.087,0.644-0.185,0.973-0.257 c-0.294,0.164-0.598,0.304-0.898,0.453c-0.303,0.144-0.608,0.279-0.915,0.412c-0.614,0.263-1.234,0.512-1.86,0.742 l-0.328,0.121l0.059-0.342C61.081,289.518,61.31,288.39,61.642,287.278z"/><path fill="#FFFFFF" d="M63.82,287.137c-0.33,0.688-0.758,1.303-1.208,1.896c-0.461,0.588-0.946,1.157-1.53,1.649 c0.329-0.688,0.757-1.304,1.208-1.897C62.751,288.2,63.236,287.629,63.82,287.137z"/></g><g><path fill="#FFFFFF" d="M29.863,299.991c0.716,0.912,1.342,1.879,1.94,2.861l-0.347,0.005 c0.319-0.586,0.654-1.163,1.002-1.733c0.175-0.283,0.354-0.565,0.539-0.846c0.191-0.275,0.374-0.557,0.578-0.824 c-0.12,0.315-0.262,0.619-0.395,0.928c-0.139,0.304-0.284,0.604-0.433,0.904c-0.3,0.596-0.613,1.186-0.942,1.768 l-0.172,0.304l-0.175-0.299C30.88,302.064,30.327,301.055,29.863,299.991z"/><path fill="#FFFFFF" d="M31.436,298.478c0.193,0.739,0.262,1.483,0.302,2.229c0.027,0.746,0.022,1.494-0.105,2.248 c-0.194-0.74-0.263-1.483-0.301-2.229C31.305,299.979,31.308,299.231,31.436,298.478z"/></g><g><path fill="#FFFFFF" d="M17.925,307.633c1.005,0.578,1.948,1.24,2.87,1.928l-0.32,0.135c0.077-0.662,0.171-1.322,0.282-1.982 c0.056-0.328,0.117-0.658,0.184-0.984c0.075-0.326,0.139-0.656,0.228-0.98c0.007,0.338-0.012,0.672-0.02,1.006 c-0.015,0.334-0.037,0.668-0.063,1.002c-0.055,0.666-0.125,1.328-0.213,1.99l-0.046,0.348l-0.273-0.213 C19.643,309.176,18.752,308.446,17.925,307.633z"/><path fill="#FFFFFF" d="M18.817,305.642c0.456,0.612,0.797,1.278,1.113,1.954c0.304,0.684,0.581,1.377,0.743,2.125 c-0.456-0.613-0.798-1.277-1.113-1.957C19.257,307.083,18.981,306.387,18.817,305.642z"/></g><g><path fill="#FFFFFF" d="M14.963,277.295c1.097,0.379,2.146,0.852,3.182,1.353l-0.289,0.192c-0.05-0.666-0.082-1.332-0.098-2 c-0.007-0.334-0.009-0.67-0.005-1.004c0.012-0.334,0.013-0.67,0.039-1.006c0.07,0.33,0.115,0.662,0.171,0.992 c0.048,0.332,0.089,0.662,0.126,0.994c0.072,0.665,0.129,1.33,0.167,1.996l0.02,0.35l-0.309-0.156 C16.941,278.486,15.929,277.938,14.963,277.295z"/><path fill="#FFFFFF" d="M15.464,275.17c0.563,0.518,1.024,1.105,1.462,1.711c0.427,0.613,0.83,1.242,1.13,1.945 c-0.563-0.517-1.025-1.105-1.462-1.711C16.168,276.502,15.766,275.874,15.464,275.17z"/></g><g><path fill="#FFFFFF" d="M55.714,299.221c0.616,0.982,1.136,2.011,1.628,3.051l-0.346-0.031 c0.379-0.55,0.773-1.088,1.18-1.617c0.205-0.265,0.412-0.527,0.625-0.785c0.22-0.252,0.43-0.512,0.662-0.758 c-0.152,0.301-0.325,0.588-0.49,0.879c-0.17,0.289-0.347,0.572-0.526,0.854c-0.361,0.562-0.735,1.114-1.124,1.657 l-0.204,0.285l-0.142-0.315C56.505,301.391,56.062,300.329,55.714,299.221z"/><path fill="#FFFFFF" d="M57.437,297.883c0.114,0.754,0.104,1.502,0.064,2.248c-0.052,0.746-0.135,1.488-0.342,2.225 c-0.114-0.756-0.104-1.503-0.064-2.249C57.149,299.361,57.231,298.618,57.437,297.883z"/></g></g></g></g></g><g><g><polygon fill="#455A64" points="18.076,318.624 57.343,318.624 53.388,351.456 22.03,351.456"/><polygon fill="#263238" points="18.076,318.624 18.968,326.03 56.669,324.217 57.343,318.624"/></g><rect x="15.609" y="314.477" fill="#455A64" width="44.2" height="5.869"/></g></g></g></svg>